<?xml version="1.0" encoding="utf-8"?>
<svg xmlns="http://www.w3.org/2000/svg" viewBox="517.473 180.64 1139.9969 493" width="1140px" height="493px">
  <g id="Layer_1" transform="matrix(0.9999999999999999, 0, 0, 0.9999999999999999, 0, 0)">
    <path fill="#150934" opacity="1.000000" stroke="none" d="M 957.473 673.64 C 727.14 673.64 747.307 673.64 517.473 673.64 C 517.473 152.644 517.473 701.644 517.473 180.64 C 1038.473 180.64 1136.47 180.64 1657.47 180.64 C 1657.47 701.643 1657.47 152.643 1657.47 673.64 C 1366.64 673.64 1248.81 673.64 957.473 673.64 M 770.601 260.545 C 736.814 260.545 703.028 260.545 668.912 260.545 C 668.912 262.838 668.912 264.643 668.911 266.447 C 668.908 299.441 668.905 332.435 668.901 365.428 C 668.899 376.73 664.951 380.618 653.472 380.618 C 620.311 380.62 587.151 380.619 553.991 380.619 C 552.222 380.619 550.454 380.619 548.562 380.619 C 548.45 382.05 548.331 382.858 548.331 383.667 C 548.321 462.818 548.313 541.969 548.335 621.12 C 548.337 627.044 552.277 631.592 558.061 632.463 C 560.351 632.807 562.689 632.979 565.006 632.979 C 644.491 633.005 723.975 633.003 803.46 632.987 C 805.449 632.986 807.455 632.901 809.426 632.646 C 816.887 631.68 820.533 627.516 820.536 620.007 C 820.546 591.013 820.517 562.018 820.55 533.024 C 820.566 518.867 820.685 504.71 821.505 490.6 C 822.3 491.88 823.57 493.08 823.799 494.454 C 824.386 497.976 826.205 499.237 829.615 498.697 C 830.588 498.543 831.725 498.416 832.591 498.762 C 838.399 501.085 839.932 497.77 840.595 492.979 C 841.199 488.608 843.449 485.676 848.058 484.864 C 849.344 484.638 850.718 484.194 851.76 483.444 C 854.335 481.592 856.652 481.85 858.908 483.834 C 863.698 488.043 868.139 488.294 872.2 482.822 C 872.573 482.319 873.29 482.078 873.829 481.69 C 876.027 480.109 876.705 478.353 875.11 475.782 C 873.46 473.124 870.815 470.057 871.111 467.454 C 871.579 463.346 873.669 459.162 876.022 455.646 C 877.122 454.004 880.393 453.375 882.769 453.118 C 888.196 452.531 889.236 449.251 889.558 444.545 C 889.894 439.62 888.665 437.165 883.385 435.917 C 873.81 433.653 870.286 423.445 875.469 415.077 C 876.578 413.288 878.166 411.102 877.934 409.307 C 877.225 403.831 868.01 400.054 863.157 402.814 C 861.311 403.863 859.353 405.408 857.408 405.466 C 849.873 405.693 843.373 398.653 843.018 389.76 C 843.792 390.852 844.449 391.418 844.646 392.115 C 846.205 397.633 849.777 398.382 854.568 396.46 C 855.337 396.152 856.148 395.944 856.949 395.723 C 861.235 394.54 867.124 394.642 869.363 391.832 C 871.618 389.003 870.284 383.285 870.451 378.83 C 870.625 374.18 876.012 370.593 880.22 372.567 C 882.612 373.689 884.906 375.123 887.019 376.715 C 891.042 379.748 894.539 380.477 897.954 375.747 C 899.59 373.481 901.905 371.704 903.913 369.705 C 909.411 364.231 909.406 364.233 905.755 357.203 C 904.91 355.577 904.108 353.929 903.296 352.286 C 900.595 346.822 903.805 341.709 909.981 341.652 C 912.147 341.632 914.367 341.348 916.47 341.715 C 922.169 342.708 924.822 340.107 925.469 334.735 C 925.547 334.081 925.737 333.434 925.922 332.798 C 929.764 319.646 929.681 319.786 918.172 312.789 C 916.353 311.683 914.734 308.666 914.761 306.554 C 914.788 304.445 916.522 301.675 918.349 300.414 C 921.997 297.898 926.22 296.217 930.25 294.169 C 928.677 287.511 927.328 281.191 925.598 274.978 C 925.232 273.663 923.615 272.024 922.328 271.765 C 918.778 271.053 915.102 270.903 911.466 270.695 C 905.141 270.333 902.294 265.182 905.491 259.672 C 906.825 257.374 908.133 255.037 909.707 252.906 C 911.732 250.164 911.733 248.025 909.051 245.59 C 906.363 243.148 904.032 240.285 901.71 237.471 C 897.031 231.8 896.31 231.659 889.786 235.445 C 887.772 236.614 885.722 237.867 883.522 238.519 C 882.02 238.965 880.15 238.723 878.582 238.291 C 873.1 236.777 872.951 232.505 873.628 227.971 C 875.033 218.567 875.054 218.57 865.946 215.648 C 852.351 211.286 852.351 211.286 844.619 223.416 C 842.658 226.492 836.747 228.052 834.466 225.775 C 832.863 224.174 831.855 221.955 830.67 219.959 C 825.398 211.077 825.409 211.07 815.115 213.549 C 803.501 216.347 803.478 216.347 803.474 228.027 C 803.473 231.053 803.622 233.663 800.121 235.521 C 796.386 237.502 793.477 237.682 790.242 234.924 C 788.484 233.425 786.278 232.459 784.472 231.006 C 781.988 229.009 780.031 229.481 777.958 231.632 C 774.49 235.231 771.069 238.91 767.292 242.165 C 764.541 244.536 764.666 246.539 766.322 249.436 C 768.338 252.963 769.828 256.79 770.601 260.545 M 1311.63 466.968 C 1304.08 450.206 1290.87 439.524 1273.16 437.024 C 1256.15 434.623 1238.69 435.342 1221.43 434.724 C 1220.18 434.679 1218.91 434.907 1217.78 434.998 C 1217.78 473.72 1217.78 512.082 1217.78 549.635 C 1235.02 549.635 1252.07 550.835 1268.87 549.346 C 1292.4 547.262 1309.91 531.284 1315.01 509.261 C 1318.27 495.191 1317.62 481.182 1311.63 466.968 M 1085.33 468.525 C 1085.2 469.253 1085.06 469.981 1084.85 471.123 C 1083.98 470.322 1083.5 469.894 1083.04 469.446 C 1062.06 449.053 1028.44 454.793 1015.28 480.96 C 1010.38 490.695 1009.55 501.011 1010.53 511.609 C 1012.96 537.677 1034.65 555.093 1060.42 551.607 C 1070.18 550.287 1078.02 545.24 1085.41 537.353 C 1085.41 542.412 1085.41 546.435 1085.41 550.385 C 1092.04 550.385 1098.13 550.385 1104.19 550.385 C 1104.19 519.739 1104.19 489.356 1104.19 458.978 C 1097.8 458.978 1091.72 458.978 1085.33 458.978 C 1085.33 462.05 1085.33 464.859 1085.33 468.525 M 1397.04 461.535 C 1366.1 448.393 1334.9 465.09 1329.9 497.477 C 1326.74 517.864 1336.01 537.671 1352.93 546.72 C 1375.99 559.057 1405.92 550.355 1417.83 527.869 C 1428.53 507.661 1424.67 474.619 1397.04 461.535 M 892.306 436.528 C 904.245 468.221 916.163 499.923 928.142 531.601 C 930.537 537.935 933.165 544.181 935.686 550.467 C 942.668 550.5 949.65 550.534 956.632 550.563 C 956.796 550.563 956.959 550.502 957.47 550.399 C 971.85 512.101 986.295 473.628 1000.91 434.702 C 995.183 434.702 990.18 434.952 985.216 434.616 C 981.792 434.384 980.412 435.577 979.279 438.79 C 969.118 467.599 958.749 496.335 948.428 525.087 C 947.855 526.681 947.159 528.23 946.193 530.604 C 934.564 498 923.309 466.442 911.988 434.702 C 907.943 434.702 904.12 434.569 900.311 434.747 C 897.556 434.875 894.82 435.416 892.306 436.528 M 1625.45 520.144 C 1625.45 499.732 1625.45 479.321 1625.45 459.053 C 1618.69 459.053 1612.62 459.053 1606.41 459.053 C 1606.41 475.387 1606.45 491.373 1606.38 507.359 C 1606.37 510.507 1606.19 513.697 1605.66 516.794 C 1603.66 528.459 1595.8 535.124 1583.92 535.461 C 1571.87 535.802 1563.53 529.361 1561.07 517.556 C 1560.47 514.656 1560.39 511.609 1560.38 508.627 C 1560.31 493.635 1560.35 478.643 1560.35 463.651 C 1560.35 462.066 1560.35 460.481 1560.35 458.944 C 1553.66 458.944 1547.73 458.944 1541.67 458.944 C 1541.67 479.295 1540.74 499.463 1541.93 519.506 C 1543.07 538.634 1557.1 550.738 1576.27 551.87 C 1587.76 552.548 1597.7 549.011 1606.58 540.178 C 1606.58 544.302 1606.58 547.363 1606.58 550.352 C 1613.07 550.352 1619.14 550.352 1625.45 550.352 C 1625.45 540.419 1625.45 530.781 1625.45 520.144 M 568.974 349.948 C 592.044 349.948 615.114 349.948 637.948 349.948 C 637.948 320.353 637.948 291.406 637.948 263.721 C 609.364 292.182 580.363 321.057 551.348 349.947 C 556.706 349.947 562.341 349.947 568.974 349.948 M 1447.04 471.728 C 1434.11 488.07 1432.06 512.511 1442.12 530.451 C 1451.23 546.698 1467.78 554.162 1489.06 551.615 C 1505.44 549.654 1519.71 537.102 1522.83 521.785 C 1516.16 521.785 1509.52 521.785 1502.89 521.785 C 1496.27 533.668 1489.23 537.363 1476.43 535.699 C 1467.07 534.481 1459.67 527.433 1456.92 516.716 C 1454.72 508.165 1454.74 499.551 1457.39 491.074 C 1460.37 481.549 1466.5 475.09 1476.62 473.757 C 1487.33 472.346 1496.48 475.086 1501.76 485.671 C 1502.19 486.547 1503.31 487.655 1504.13 487.677 C 1510.37 487.845 1516.61 487.769 1522.97 487.769 C 1520.44 476.581 1513.93 467.874 1504.64 462.71 C 1490.48 454.842 1462.9 453.627 1447.04 471.728 M 1148.47 460.144 C 1148.47 449.232 1148.47 438.319 1148.47 427.435 C 1141.86 427.435 1135.9 427.435 1129.81 427.435 C 1129.81 468.566 1129.81 509.537 1129.81 550.305 C 1136.22 550.305 1142.29 550.305 1148.47 550.305 C 1148.47 520.358 1148.47 490.751 1148.47 460.144 M 1173.47 515.144 C 1173.47 526.893 1173.47 538.643 1173.47 550.366 C 1180.1 550.366 1186.16 550.366 1192.19 550.366 C 1192.19 519.726 1192.19 489.367 1192.19 459.005 C 1185.85 459.005 1179.79 459.005 1173.47 459.005 C 1173.47 477.581 1173.47 495.862 1173.47 515.144 M 1172.19 429.023 C 1169.47 437.608 1172.73 444.637 1180.25 446.383 C 1187.15 447.983 1193.76 443.553 1195.03 436.477 C 1196 431.106 1193.12 425.624 1188.12 423.345 C 1182.57 420.812 1176.99 422.598 1172.19 429.023 Z" style="stroke-width: 1;"/>
    <path fill="#FEFEFE" opacity="1.000000" stroke="none" d="M 820.758 490.553 C 820.685 504.71 820.566 518.867 820.55 533.024 C 820.517 562.018 820.546 591.013 820.536 620.007 C 820.533 627.516 816.887 631.68 809.426 632.646 C 807.455 632.901 805.449 632.986 803.46 632.987 C 723.975 633.003 644.491 633.005 565.006 632.979 C 562.689 632.979 560.351 632.807 558.061 632.463 C 552.277 631.592 548.337 627.044 548.335 621.12 C 548.313 541.969 548.321 462.818 548.331 383.667 C 548.331 382.858 548.45 382.05 548.562 380.619 C 550.454 380.619 552.222 380.619 553.991 380.619 C 587.151 380.619 620.311 380.62 653.472 380.618 C 664.951 380.618 668.899 376.73 668.901 365.428 C 668.905 332.435 668.908 299.441 668.911 266.447 C 668.912 264.643 668.912 262.838 668.912 260.545 C 703.028 260.545 736.814 260.545 771.126 260.889 C 769.642 266.718 765.879 268.676 760.094 267.528 C 757.061 266.926 753.863 267.159 750.54 267.006 C 749.702 269.95 748.931 272.649 748.165 275.35 C 746.942 279.659 743.747 284.743 745.047 288.067 C 746.41 291.554 752.042 293.424 755.889 295.874 C 760.345 298.712 760.209 306.081 755.56 308.641 C 751.649 310.795 747.715 312.906 743.577 315.153 C 745.396 322.714 747.164 330.063 748.981 337.613 C 753.988 337.613 758.641 337.559 763.292 337.63 C 767.37 337.691 771.245 344.506 769.178 348.008 C 766.746 352.127 764.18 356.168 761.571 360.408 C 766.885 365.977 772.034 371.374 777.837 377.457 C 779.888 375.443 781.761 373.601 784.009 371.767 C 786.108 370.872 787.832 369.971 789.756 369.038 C 796.468 368.946 800.464 372.759 800.181 378.793 C 800.003 382.608 799.785 386.42 799.565 390.608 C 805.732 392.408 811.794 394.078 817.77 396.014 C 818.884 396.375 820.448 397.867 820.385 398.734 C 820.297 399.94 819.085 401.343 817.98 402.147 C 813.298 405.556 808.754 405.439 804.402 401.317 C 803.229 400.206 801.613 399.562 799.65 398.371 C 796.697 401.725 793.748 405.075 790.547 408.711 C 792.589 413.684 797.263 417.685 793.903 425.549 C 790.485 433.549 784.549 433.503 778.405 435.201 C 778.226 436.646 778.008 437.937 777.916 439.237 C 777.234 448.881 777.261 448.819 786.31 451.562 C 787.855 452.031 789.863 452.967 790.463 454.247 C 795.581 465.166 795.496 465.202 789.327 475.452 C 789.08 475.862 788.997 476.37 788.738 477.12 C 791.968 480.055 795.254 483.042 798.813 486.276 C 799.443 485.701 800.498 484.738 801.877 483.668 C 804.12 482.609 806.039 481.658 808.358 480.683 C 812.59 482.328 816.423 483.998 820.371 485.717 C 820.501 487.343 820.629 488.948 820.758 490.553 M 707.331 521.009 C 727.204 495.773 748.272 471.678 773.618 452.16 C 767.217 442.339 761.07 432.906 754.697 423.127 C 723.935 450.234 695.803 479.897 673.739 514.443 C 661.393 502.465 649.282 490.714 637.038 478.835 C 629.636 487.983 622.987 496.2 616.954 503.658 C 636.963 523.564 656.831 543.329 676.397 562.794 C 686.131 549.622 696.502 535.588 707.331 521.009 Z" style="stroke-width: 1;"/>
    <path fill="#FCFCFD" opacity="1.000000" stroke="none" d="M 1311.8 467.31 C 1317.62 481.182 1318.27 495.191 1315.01 509.261 C 1309.91 531.284 1292.4 547.262 1268.87 549.346 C 1252.07 550.835 1235.02 549.635 1217.78 549.635 C 1217.78 512.082 1217.78 473.72 1217.78 434.998 C 1218.91 434.907 1220.18 434.679 1221.43 434.724 C 1238.69 435.342 1256.15 434.623 1273.16 437.024 C 1290.87 439.524 1304.08 450.206 1311.8 467.31 M 1236.48 508.144 C 1236.48 517.059 1236.48 525.974 1236.48 534.666 C 1245.61 534.666 1254.12 535.108 1262.56 534.572 C 1278.75 533.544 1291.13 523.904 1295.02 508.853 C 1296.69 502.364 1297.46 495.326 1296.99 488.653 C 1295.43 466.518 1283.84 453.365 1263.64 451.017 C 1254.83 449.994 1245.81 450.845 1236.48 450.845 C 1236.48 469.623 1236.48 488.383 1236.48 508.144 Z" style="stroke-width: 1;"/>
    <path fill="#FCFCFD" opacity="1.000000" stroke="none" d="M 1085.33 468.096 C 1085.33 464.859 1085.33 462.05 1085.33 458.978 C 1091.72 458.978 1097.8 458.978 1104.19 458.978 C 1104.19 489.356 1104.19 519.739 1104.19 550.385 C 1098.13 550.385 1092.04 550.385 1085.41 550.385 C 1085.41 546.435 1085.41 542.412 1085.41 537.353 C 1078.02 545.24 1070.18 550.287 1060.42 551.607 C 1034.65 555.093 1012.96 537.677 1010.53 511.609 C 1009.55 501.011 1010.38 490.695 1015.28 480.96 C 1028.44 454.793 1062.06 449.053 1083.04 469.446 C 1083.5 469.894 1083.98 470.322 1084.85 471.123 C 1085.06 469.981 1085.2 469.253 1085.33 468.096 M 1083.35 492.551 C 1078.57 480.769 1070.02 474.048 1057.14 473.882 C 1045.95 473.738 1036.35 480.608 1032.09 491.216 C 1029.28 498.217 1029.07 505.472 1030.57 512.766 C 1033.27 525.906 1044.45 535.431 1057.17 535.611 C 1069.87 535.79 1081.42 527.133 1083.91 513.932 C 1085.16 507.323 1083.74 500.211 1083.35 492.551 Z" style="stroke-width: 1;"/>
    <path fill="#0E0906" opacity="1.000000" stroke="none" d="M 801.553 483.775 C 800.498 484.738 799.443 485.701 798.813 486.276 C 795.254 483.042 791.968 480.055 788.738 477.12 C 788.997 476.37 789.08 475.862 789.327 475.452 C 795.496 465.202 795.581 465.166 790.463 454.247 C 789.863 452.967 787.855 452.031 786.31 451.562 C 777.261 448.819 777.234 448.881 777.916 439.237 C 778.008 437.937 778.226 436.646 778.405 435.201 C 784.549 433.503 790.485 433.549 793.903 425.549 C 797.263 417.685 792.589 413.684 790.547 408.711 C 793.748 405.075 796.697 401.725 799.65 398.371 C 801.613 399.562 803.229 400.206 804.402 401.317 C 808.754 405.439 813.298 405.556 817.98 402.147 C 819.085 401.343 820.297 399.94 820.385 398.734 C 820.448 397.867 818.884 396.375 817.77 396.014 C 811.794 394.078 805.732 392.408 799.565 390.608 C 799.785 386.42 800.003 382.608 800.181 378.793 C 800.464 372.759 796.468 368.946 789.74 368.709 C 790.166 367.958 790.801 367.497 791.448 367.052 C 793.893 365.369 795.991 364.681 799.038 366.664 C 802.012 368.598 802.988 370.544 802.701 373.909 C 802.379 377.683 802.627 381.507 802.627 385.507 C 809.458 387.517 816.11 389.474 823.003 391.503 C 824.944 388.233 826.733 385.254 828.488 382.255 C 829.986 379.699 831.106 377.427 835.112 377.552 C 839.228 377.68 841.034 379.461 842.491 382.739 C 843.57 385.167 844.764 387.611 846.345 389.719 C 847.116 390.747 849.031 391.747 850.185 391.52 C 856.171 390.344 862.079 388.767 867.766 387.39 C 868.026 386.623 868.217 386.314 868.222 386.002 C 868.289 382.339 868.306 378.674 868.381 375.011 C 868.49 369.645 874.474 366.292 879.093 369.027 C 882.655 371.136 886.17 373.321 889.831 375.548 C 892.227 373.302 894.432 371.285 896.581 369.209 C 905.105 360.974 905.214 360.903 899.294 350.389 C 897.78 347.699 898.067 345.916 899.357 343.218 C 901.289 339.178 904.343 339.614 907.668 339.673 C 917.911 339.856 917.911 339.827 920.784 330.109 C 923.98 319.298 924.03 319.211 914.231 313.525 C 911.271 311.807 909.594 310.141 909.668 306.244 C 909.742 302.383 912.164 301.618 914.589 300.313 C 924.336 295.068 924.335 295.067 921.696 284.421 C 919.063 273.804 919.063 273.804 908.038 273.632 C 900.281 273.51 897.695 268.73 901.735 261.978 C 907.284 252.701 907.284 252.701 900.029 244.973 C 892.434 236.883 892.341 236.724 882.482 242.49 C 879.277 244.364 877.042 244.089 873.969 242.29 C 870.152 240.057 871.54 236.803 871.513 233.899 C 871.424 224.221 871.52 224.22 862.222 221.444 C 851.157 218.141 851.157 218.141 845.179 227.784 C 841.414 233.856 835.471 233.664 832.011 227.358 C 826.546 217.396 826.546 217.396 815.305 220.155 C 805.728 222.505 805.57 222.507 805.674 232.606 C 805.715 236.586 805.064 239.225 801.026 241.301 C 797.007 243.367 795.078 240.601 792.637 239.15 C 784.364 234.232 784.425 234.13 777.706 240.508 C 768.995 248.778 768.907 248.829 774.852 259.086 C 776.358 261.683 776.312 263.511 774.978 266.299 C 772.945 270.545 769.825 270.111 766.289 269.928 C 756.192 269.407 756.189 269.46 753.471 279.052 C 750.356 290.045 750.318 290.111 760.092 295.841 C 762.864 297.465 764.45 298.996 764.353 302.744 C 764.254 306.563 762.467 308.026 759.583 309.345 C 757.316 310.382 754.875 311.322 753.034 312.911 C 751.743 314.025 750.422 316.323 750.689 317.811 C 751.735 323.658 753.405 329.393 754.95 335.601 C 758.532 335.601 762.001 335.645 765.469 335.588 C 768.642 335.536 771.179 335.528 773.138 339.243 C 775.007 342.788 774.318 345.019 772.328 347.727 C 771.049 349.468 770.121 351.473 768.789 353.166 C 766.786 355.713 766.912 357.653 769.379 359.961 C 773.142 363.482 776.476 367.461 780.179 371.054 C 780.89 371.743 782.461 371.547 783.635 371.76 C 781.761 373.601 779.888 375.443 777.837 377.457 C 772.034 371.374 766.885 365.977 761.571 360.408 C 764.18 356.168 766.746 352.127 769.178 348.008 C 771.245 344.506 767.37 337.691 763.292 337.63 C 758.641 337.559 753.988 337.613 748.981 337.613 C 747.164 330.063 745.396 322.714 743.577 315.153 C 747.715 312.906 751.649 310.795 755.56 308.641 C 760.209 306.081 760.345 298.712 755.889 295.874 C 752.042 293.424 746.41 291.554 745.047 288.067 C 743.747 284.743 746.942 279.659 748.165 275.35 C 748.931 272.649 749.702 269.95 750.54 267.006 C 753.863 267.159 757.061 266.926 760.094 267.528 C 765.879 268.676 769.642 266.718 771.598 260.86 C 769.828 256.79 768.338 252.963 766.322 249.436 C 764.666 246.539 764.541 244.536 767.292 242.165 C 771.069 238.91 774.49 235.231 777.958 231.632 C 780.031 229.481 781.988 229.009 784.472 231.006 C 786.278 232.459 788.484 233.425 790.242 234.924 C 793.477 237.682 796.386 237.502 800.121 235.521 C 803.622 233.663 803.473 231.053 803.474 228.027 C 803.478 216.347 803.501 216.347 815.115 213.549 C 825.409 211.07 825.398 211.077 830.67 219.959 C 831.855 221.955 832.863 224.174 834.466 225.775 C 836.747 228.052 842.658 226.492 844.619 223.416 C 852.351 211.286 852.351 211.286 865.946 215.648 C 875.054 218.57 875.033 218.567 873.628 227.971 C 872.951 232.505 873.1 236.777 878.582 238.291 C 880.15 238.723 882.02 238.965 883.522 238.519 C 885.722 237.867 887.772 236.614 889.786 235.445 C 896.31 231.659 897.031 231.8 901.71 237.471 C 904.032 240.285 906.363 243.148 909.051 245.59 C 911.733 248.025 911.732 250.164 909.707 252.906 C 908.133 255.037 906.825 257.374 905.491 259.672 C 902.294 265.182 905.141 270.333 911.466 270.695 C 915.102 270.903 918.778 271.053 922.328 271.765 C 923.615 272.024 925.232 273.663 925.598 274.978 C 927.328 281.191 928.677 287.511 930.25 294.169 C 926.22 296.217 921.997 297.898 918.349 300.414 C 916.522 301.675 914.788 304.445 914.761 306.554 C 914.734 308.666 916.353 311.683 918.172 312.789 C 929.681 319.786 929.764 319.646 925.922 332.798 C 925.737 333.434 925.547 334.081 925.469 334.735 C 924.822 340.107 922.169 342.708 916.47 341.715 C 914.367 341.348 912.147 341.632 909.981 341.652 C 903.805 341.709 900.595 346.822 903.296 352.286 C 904.108 353.929 904.91 355.577 905.755 357.203 C 909.406 364.233 909.411 364.231 903.913 369.705 C 901.905 371.704 899.59 373.481 897.954 375.747 C 894.539 380.477 891.042 379.748 887.019 376.715 C 884.906 375.123 882.612 373.689 880.22 372.567 C 876.012 370.593 870.625 374.18 870.451 378.83 C 870.284 383.285 871.618 389.003 869.363 391.832 C 867.124 394.642 861.235 394.54 856.949 395.723 C 856.148 395.944 855.337 396.152 854.568 396.46 C 849.777 398.382 846.205 397.633 844.646 392.115 C 844.449 391.418 843.792 390.852 843.018 389.76 C 843.373 398.653 849.873 405.693 857.408 405.466 C 859.353 405.408 861.311 403.863 863.157 402.814 C 868.01 400.054 877.225 403.831 877.934 409.307 C 878.166 411.102 876.578 413.288 875.469 415.077 C 870.286 423.445 873.81 433.653 883.385 435.917 C 888.665 437.165 889.894 439.62 889.558 444.545 C 889.236 449.251 888.196 452.531 882.769 453.118 C 880.393 453.375 877.122 454.004 876.022 455.646 C 873.669 459.162 871.579 463.346 871.111 467.454 C 870.815 470.057 873.46 473.124 875.11 475.782 C 876.705 478.353 876.027 480.109 873.829 481.69 C 873.29 482.078 872.573 482.319 872.2 482.822 C 868.139 488.294 863.698 488.043 858.908 483.834 C 856.652 481.85 854.335 481.592 851.76 483.444 C 850.718 484.194 849.344 484.638 848.058 484.864 C 843.449 485.676 841.199 488.608 840.595 492.979 C 839.932 497.77 838.399 501.085 832.591 498.762 C 831.725 498.416 830.588 498.543 829.615 498.697 C 826.205 499.237 824.386 497.976 823.799 494.454 C 823.57 493.08 822.3 491.88 821.131 490.577 C 820.629 488.948 820.501 487.343 820.371 485.717 C 816.423 483.998 812.59 482.328 808.499 480.307 C 809.677 477.497 811.53 477.107 813.962 478.614 C 815.368 479.484 816.873 480.418 818.453 480.74 C 822.762 481.616 824.496 484.434 824.751 488.439 C 825.072 493.47 827.721 494.694 832.553 494.786 C 837.411 494.878 840.096 493.65 840.431 488.679 C 840.721 484.375 843.126 482.23 847.238 481.58 C 850.538 481.058 853.028 477.445 857.271 480.373 C 864.289 485.217 864.536 484.872 870.566 478.921 C 871.383 478.115 872.117 477.225 872.937 476.322 C 871.168 471.001 866.703 467.219 869.888 459.926 C 873.109 452.553 879.056 453.177 884.213 450.95 C 884.292 449.522 884.387 448.373 884.414 447.222 C 884.602 439.053 884.58 439.106 876.786 436.559 C 875.313 436.078 873.219 435.276 872.81 434.125 C 870.636 428.006 866.603 421.684 873.168 415.648 C 873.821 415.047 874.044 413.979 874.477 413.105 C 872.805 411.335 871.122 409.908 869.881 408.165 C 867.381 404.65 864.743 404.215 861.195 406.746 C 859.382 408.04 856.322 409.972 855.103 409.299 C 849.926 406.444 841.779 406.577 841.976 397.513 C 842.091 392.265 838.026 393.024 834.587 392.781 C 830.82 392.514 827.848 392.573 827.102 397.495 C 826.561 401.063 825.506 404.013 820.953 405.93 C 814.554 408.625 809.752 408.098 804.821 403.81 C 804.346 403.397 803.648 403.241 802.49 402.704 C 799.916 405.553 797.258 408.494 794.496 411.55 C 796.11 414.768 799.101 418.138 799.161 421.56 C 799.224 425.205 796.956 429.187 794.821 432.442 C 793.828 433.955 790.767 434.663 788.602 434.752 C 781.87 435.031 783.389 439.961 782.671 443.999 C 781.798 448.903 785.132 449.227 788.291 450.292 C 790.484 451.032 793.476 451.781 794.404 453.466 C 797.809 459.645 800.213 466.195 793.853 472.282 C 793.413 472.702 793.304 473.468 792.952 474.28 C 795.804 477.428 798.678 480.602 801.553 483.775 M 839.274 387.631 C 842.695 386.797 840.754 384.227 839.782 383.896 C 837.268 383.041 834.38 382.56 831.789 382.94 C 830.308 383.156 829.116 385.347 827.794 386.649 C 828.062 386.982 828.33 387.315 828.598 387.648 C 831.876 387.648 835.153 387.648 839.274 387.631 M 822.046 488.165 C 822.046 488.165 821.924 488.239 822.046 488.165 Z" style="stroke-width: 1;"/>
    <path fill="#FBFBFC" opacity="1.000000" stroke="none" d="M 1397.4 461.66 C 1424.67 474.619 1428.53 507.661 1417.83 527.869 C 1405.92 550.355 1375.99 559.057 1352.93 546.72 C 1336.01 537.671 1326.74 517.864 1329.9 497.477 C 1334.9 465.09 1366.1 448.393 1397.4 461.66 M 1389.27 477.155 C 1371.46 469.01 1353.79 476.776 1350.21 495.263 C 1348.83 502.363 1349.25 510.339 1350.97 517.399 C 1354.15 530.434 1367.28 537.679 1380.45 535.113 C 1392.61 532.743 1400.39 524.797 1402.97 512.116 C 1405.9 497.682 1401.08 484.894 1389.27 477.155 Z" style="stroke-width: 1;"/>
    <path fill="#FBFBFC" opacity="1.000000" stroke="none" d="M 892.191 436.15 C 894.82 435.416 897.556 434.875 900.311 434.747 C 904.12 434.569 907.943 434.702 911.988 434.702 C 923.309 466.442 934.564 498 946.193 530.604 C 947.159 528.23 947.855 526.681 948.428 525.087 C 958.749 496.335 969.118 467.599 979.279 438.79 C 980.412 435.577 981.792 434.384 985.216 434.616 C 990.18 434.952 995.183 434.702 1000.91 434.702 C 986.295 473.628 971.85 512.101 957.47 550.399 C 956.959 550.502 956.796 550.563 956.632 550.563 C 949.65 550.534 942.668 550.5 935.686 550.467 C 933.165 544.181 930.537 537.935 928.142 531.601 C 916.163 499.923 904.245 468.221 892.191 436.15 Z" style="stroke-width: 1;"/>
    <path fill="#FCFCFD" opacity="1.000000" stroke="none" d="M 1625.45 520.644 C 1625.45 530.781 1625.45 540.419 1625.45 550.352 C 1619.14 550.352 1613.07 550.352 1606.58 550.352 C 1606.58 547.363 1606.58 544.302 1606.58 540.178 C 1597.7 549.011 1587.76 552.548 1576.27 551.87 C 1557.1 550.738 1543.07 538.634 1541.93 519.506 C 1540.74 499.463 1541.67 479.295 1541.67 458.944 C 1547.73 458.944 1553.66 458.944 1560.35 458.944 C 1560.35 460.481 1560.35 462.066 1560.35 463.651 C 1560.35 478.643 1560.31 493.635 1560.38 508.627 C 1560.39 511.609 1560.47 514.656 1561.07 517.556 C 1563.53 529.361 1571.87 535.802 1583.92 535.461 C 1595.8 535.124 1603.66 528.459 1605.66 516.794 C 1606.19 513.697 1606.37 510.507 1606.38 507.359 C 1606.45 491.373 1606.41 475.387 1606.41 459.053 C 1612.62 459.053 1618.69 459.053 1625.45 459.053 C 1625.45 479.321 1625.45 499.732 1625.45 520.644 Z" style="stroke-width: 1;"/>
    <path fill="#FCFCFD" opacity="1.000000" stroke="none" d="M 568.475 349.947 C 562.341 349.947 556.706 349.947 551.348 349.947 C 580.363 321.057 609.364 292.182 637.948 263.721 C 637.948 291.406 637.948 320.353 637.948 349.948 C 615.114 349.948 592.044 349.948 568.475 349.947 Z" style="stroke-width: 1;"/>
    <path fill="#FBFBFC" opacity="1.000000" stroke="none" d="M 1447.28 471.461 C 1462.9 453.627 1490.48 454.842 1504.64 462.71 C 1513.93 467.874 1520.44 476.581 1522.97 487.769 C 1516.61 487.769 1510.37 487.845 1504.13 487.677 C 1503.31 487.655 1502.19 486.547 1501.76 485.671 C 1496.48 475.086 1487.33 472.346 1476.62 473.757 C 1466.5 475.09 1460.37 481.549 1457.39 491.074 C 1454.74 499.551 1454.72 508.165 1456.92 516.716 C 1459.67 527.433 1467.07 534.481 1476.43 535.699 C 1489.23 537.363 1496.27 533.668 1502.89 521.785 C 1509.52 521.785 1516.16 521.785 1522.83 521.785 C 1519.71 537.102 1505.44 549.654 1489.06 551.615 C 1467.78 554.162 1451.23 546.698 1442.12 530.451 C 1432.06 512.511 1434.11 488.07 1447.28 471.461 Z" style="stroke-width: 1;"/>
    <path fill="#FEFEFE" opacity="1.000000" stroke="none" d="M 1148.47 460.644 C 1148.47 490.751 1148.47 520.358 1148.47 550.305 C 1142.29 550.305 1136.22 550.305 1129.81 550.305 C 1129.81 509.537 1129.81 468.566 1129.81 427.435 C 1135.9 427.435 1141.86 427.435 1148.47 427.435 C 1148.47 438.319 1148.47 449.232 1148.47 460.644 Z" style="stroke-width: 1;"/>
    <path fill="#FEFEFE" opacity="1.000000" stroke="none" d="M 1173.47 514.644 C 1173.47 495.862 1173.47 477.581 1173.47 459.005 C 1179.79 459.005 1185.85 459.005 1192.19 459.005 C 1192.19 489.367 1192.19 519.726 1192.19 550.366 C 1186.16 550.366 1180.1 550.366 1173.47 550.366 C 1173.47 538.643 1173.47 526.893 1173.47 514.644 Z" style="stroke-width: 1;"/>
    <path fill="#FBFBFC" opacity="1.000000" stroke="none" d="M 1172.35 428.684 C 1176.99 422.598 1182.57 420.812 1188.12 423.345 C 1193.12 425.624 1196 431.106 1195.03 436.477 C 1193.76 443.553 1187.15 447.983 1180.25 446.383 C 1172.73 444.637 1169.47 437.608 1172.35 428.684 Z" style="stroke-width: 1;"/>
    <path fill="#FD7E00" opacity="1.000000" stroke="none" d="M 784.01 371.767 C 782.461 371.547 780.89 371.743 780.179 371.054 C 776.476 367.461 773.142 363.482 769.379 359.961 C 766.912 357.653 766.786 355.713 768.789 353.166 C 770.121 351.473 771.049 349.468 772.328 347.727 C 774.318 345.019 775.007 342.788 773.138 339.243 C 771.179 335.528 768.642 335.536 765.469 335.588 C 762.001 335.645 758.532 335.601 754.95 335.601 C 753.405 329.393 751.735 323.658 750.689 317.811 C 750.422 316.323 751.743 314.025 753.034 312.911 C 754.875 311.322 757.316 310.382 759.583 309.345 C 762.467 308.026 764.254 306.563 764.353 302.744 C 764.45 298.996 762.864 297.465 760.092 295.841 C 750.318 290.111 750.356 290.045 753.471 279.052 C 756.189 269.46 756.192 269.407 766.289 269.928 C 769.825 270.111 772.945 270.545 774.978 266.299 C 776.312 263.511 776.358 261.683 774.852 259.086 C 768.907 248.829 768.995 248.778 777.706 240.508 C 784.425 234.13 784.364 234.232 792.637 239.15 C 795.078 240.601 797.007 243.367 801.026 241.301 C 805.064 239.225 805.715 236.586 805.674 232.606 C 805.57 222.507 805.728 222.505 815.305 220.155 C 826.546 217.396 826.546 217.396 832.011 227.358 C 835.471 233.664 841.414 233.856 845.179 227.784 C 851.157 218.141 851.157 218.141 862.222 221.444 C 871.52 224.22 871.424 224.221 871.513 233.899 C 871.54 236.803 870.152 240.057 873.969 242.29 C 877.042 244.089 879.277 244.364 882.482 242.49 C 892.341 236.724 892.434 236.883 900.029 244.973 C 907.284 252.701 907.284 252.701 901.735 261.978 C 897.695 268.73 900.281 273.51 908.038 273.632 C 919.063 273.804 919.063 273.804 921.696 284.421 C 924.335 295.067 924.336 295.068 914.589 300.313 C 912.164 301.618 909.742 302.383 909.668 306.244 C 909.594 310.141 911.271 311.807 914.231 313.525 C 924.03 319.211 923.98 319.298 920.784 330.109 C 917.911 339.827 917.911 339.856 907.668 339.673 C 904.343 339.614 901.289 339.178 899.357 343.218 C 898.067 345.916 897.78 347.699 899.294 350.389 C 905.214 360.903 905.105 360.974 896.581 369.209 C 894.432 371.285 892.227 373.302 889.831 375.548 C 886.17 373.321 882.655 371.136 879.093 369.027 C 874.474 366.292 868.49 369.645 868.381 375.011 C 868.306 378.674 868.289 382.339 868.222 386.002 C 868.217 386.314 868.026 386.623 867.766 387.39 C 862.079 388.767 856.171 390.344 850.185 391.52 C 849.031 391.747 847.116 390.747 846.345 389.719 C 844.764 387.611 843.57 385.167 842.491 382.739 C 841.034 379.461 839.228 377.68 835.112 377.552 C 831.106 377.427 829.986 379.699 828.488 382.255 C 826.733 385.254 824.944 388.233 823.003 391.503 C 816.11 389.474 809.458 387.517 802.627 385.507 C 802.627 381.507 802.379 377.683 802.701 373.909 C 802.988 370.544 802.012 368.598 799.038 366.664 C 795.991 364.681 793.893 365.369 791.448 367.052 C 790.801 367.497 790.166 367.958 789.54 368.741 C 787.832 369.971 786.108 370.872 784.01 371.767 M 816.111 278.727 C 802.253 291.026 799.056 308.864 808.067 323.609 C 816.789 337.882 834.931 343.992 850.315 337.528 C 862.68 332.332 870.039 322.861 871.339 309.508 C 872.758 294.942 866.987 283.299 854.212 276.074 C 841.5 268.884 828.741 269.836 816.111 278.727 Z" style="stroke-width: 1;"/>
    <path fill="#10BE04" opacity="1.000000" stroke="none" d="M 707.102 521.282 C 696.502 535.588 686.131 549.622 676.397 562.794 C 656.831 543.329 636.963 523.564 616.954 503.658 C 622.987 496.2 629.636 487.983 637.038 478.835 C 649.282 490.714 661.393 502.465 673.739 514.443 C 695.803 479.897 723.935 450.234 754.697 423.127 C 761.07 432.906 767.217 442.339 773.618 452.16 C 748.272 471.678 727.204 495.773 707.102 521.282 Z" style="stroke-width: 1;"/>
    <path fill="#FD7E00" opacity="1.000000" stroke="none" d="M 801.877 483.668 C 798.678 480.602 795.804 477.428 792.952 474.28 C 793.304 473.468 793.413 472.702 793.853 472.282 C 800.213 466.195 797.809 459.645 794.404 453.466 C 793.476 451.781 790.484 451.032 788.291 450.292 C 785.132 449.227 781.798 448.903 782.671 443.999 C 783.389 439.961 781.87 435.031 788.602 434.752 C 790.767 434.663 793.828 433.955 794.821 432.442 C 796.956 429.187 799.224 425.205 799.161 421.56 C 799.101 418.138 796.11 414.768 794.496 411.55 C 797.258 408.494 799.916 405.553 802.49 402.704 C 803.648 403.241 804.346 403.397 804.821 403.81 C 809.752 408.098 814.554 408.625 820.953 405.93 C 825.506 404.013 826.561 401.063 827.102 397.495 C 827.848 392.573 830.82 392.514 834.587 392.781 C 838.026 393.024 842.091 392.265 841.976 397.513 C 841.779 406.577 849.926 406.444 855.103 409.299 C 856.322 409.972 859.382 408.04 861.195 406.746 C 864.743 404.215 867.381 404.65 869.881 408.165 C 871.122 409.908 872.805 411.335 874.477 413.105 C 874.044 413.979 873.821 415.047 873.168 415.648 C 866.603 421.684 870.636 428.006 872.81 434.125 C 873.219 435.276 875.313 436.078 876.786 436.559 C 884.58 439.106 884.602 439.053 884.414 447.222 C 884.387 448.373 884.292 449.522 884.213 450.95 C 879.056 453.177 873.109 452.553 869.888 459.926 C 866.703 467.219 871.168 471.001 872.937 476.322 C 872.117 477.225 871.383 478.115 870.566 478.921 C 864.536 484.872 864.289 485.217 857.271 480.373 C 853.028 477.445 850.538 481.058 847.238 481.58 C 843.126 482.23 840.721 484.375 840.431 488.679 C 840.096 493.65 837.411 494.878 832.553 494.786 C 827.721 494.694 825.072 493.47 824.751 488.439 C 824.496 484.434 822.762 481.616 818.453 480.74 C 816.873 480.418 815.368 479.484 813.962 478.614 C 811.53 477.107 809.677 477.497 808.099 480.331 C 806.039 481.658 804.12 482.609 801.877 483.668 M 828.801 463.003 C 837.501 464.326 845.192 460.977 849.384 454.042 C 853.635 447.009 853.231 438.684 848.316 432.044 C 843.384 425.382 835.164 422.548 827.086 424.726 C 819.156 426.864 812.978 434.753 812.674 443.128 C 812.35 452.04 818.416 459.83 828.801 463.003 Z" style="stroke-width: 1;"/>
    <path fill="#150934" opacity="1.000000" stroke="none" d="M 1236.48 507.644 C 1236.48 488.383 1236.48 469.623 1236.48 450.845 C 1245.81 450.845 1254.83 449.994 1263.64 451.017 C 1283.84 453.365 1295.43 466.518 1296.99 488.653 C 1297.46 495.326 1296.69 502.364 1295.02 508.853 C 1291.13 523.904 1278.75 533.544 1262.56 534.572 C 1254.12 535.108 1245.61 534.666 1236.48 534.666 C 1236.48 525.974 1236.48 517.059 1236.48 507.644 Z" style="stroke-width: 1;"/>
    <path fill="#170B36" opacity="1.000000" stroke="none" d="M 1083.43 492.939 C 1083.74 500.211 1085.16 507.323 1083.91 513.932 C 1081.42 527.133 1069.87 535.79 1057.17 535.611 C 1044.45 535.431 1033.27 525.906 1030.57 512.766 C 1029.07 505.472 1029.28 498.217 1032.09 491.216 C 1036.35 480.608 1045.95 473.738 1057.14 473.882 C 1070.02 474.048 1078.57 480.769 1083.43 492.939 Z" style="stroke-width: 1;"/>
    <path fill="#150934" opacity="1.000000" stroke="none" d="M 838.852 387.64 C 835.153 387.648 831.876 387.648 828.598 387.648 C 828.33 387.315 828.062 386.982 827.794 386.649 C 829.116 385.347 830.308 383.156 831.789 382.94 C 834.38 382.56 837.268 383.041 839.782 383.896 C 840.754 384.227 842.695 386.797 838.852 387.64 Z" style="stroke-width: 1;"/>
    <path fill="#150934" opacity="1.000000" stroke="none" d="M 821.985 488.202 C 821.924 488.239 822.046 488.165 821.985 488.202 Z" style="stroke-width: 1;"/>
    <path fill="#170B36" opacity="1.000000" stroke="none" d="M 1389.6 477.341 C 1401.08 484.894 1405.9 497.682 1402.97 512.116 C 1400.39 524.797 1392.61 532.743 1380.45 535.113 C 1367.28 537.679 1354.15 530.434 1350.97 517.399 C 1349.25 510.339 1348.83 502.363 1350.21 495.263 C 1353.79 476.776 1371.46 469.01 1389.6 477.341 Z" style="stroke-width: 1;"/>
    <path fill="#0E0906" opacity="1.000000" stroke="none" d="M 816.402 278.517 C 828.741 269.836 841.5 268.884 854.212 276.074 C 866.987 283.299 872.758 294.942 871.339 309.508 C 870.039 322.861 862.68 332.332 850.315 337.528 C 834.931 343.992 816.789 337.882 808.067 323.609 C 799.056 308.864 802.253 291.026 816.402 278.517 M 854.504 281.05 C 844.59 274.021 833.965 273.553 823.415 278.834 C 812.348 284.374 807.518 293.74 807.297 306.324 C 806.968 325.077 825.311 340.212 845.334 335.092 C 857.393 332.009 865.029 323.718 867.097 311.634 C 869.16 299.58 865.63 288.918 854.504 281.05 Z" style="stroke-width: 1;"/>
    <path fill="#0E0906" opacity="1.000000" stroke="none" d="M 828.404 462.911 C 818.416 459.83 812.35 452.04 812.674 443.128 C 812.978 434.753 819.156 426.864 827.086 424.726 C 835.164 422.548 843.384 425.382 848.316 432.044 C 853.231 438.684 853.635 447.009 849.384 454.042 C 845.192 460.977 837.501 464.326 828.404 462.911 M 829.68 428.086 C 817.937 431.989 813.54 442.132 819.253 452.138 C 822.954 458.621 831.383 461.163 838.72 458.01 C 846.269 454.767 849.987 447.195 847.655 439.817 C 845.097 431.725 839.617 427.909 829.68 428.086 Z" style="stroke-width: 1;"/>
    <path fill="#150934" opacity="1.000000" stroke="none" d="M 854.807 281.249 C 865.63 288.918 869.16 299.58 867.097 311.634 C 865.029 323.718 857.393 332.009 845.334 335.092 C 825.311 340.212 806.968 325.077 807.297 306.324 C 807.518 293.74 812.348 284.374 823.415 278.834 C 833.965 273.553 844.59 274.021 854.807 281.249 Z" style="stroke-width: 1;"/>
    <path fill="#150934" opacity="1.000000" stroke="none" d="M 830.06 427.958 C 839.617 427.909 845.097 431.725 847.655 439.817 C 849.987 447.195 846.269 454.767 838.72 458.01 C 831.383 461.163 822.954 458.621 819.253 452.138 C 813.54 442.132 817.937 431.989 830.06 427.958 Z" style="stroke-width: 1;"/>
  </g>
</svg>