<?xml version="1.0" encoding="utf-8"?>
<svg xmlns="http://www.w3.org/2000/svg" viewBox="689.2169 149.3085 374.8721 414.4185" width="374.872px" height="414.418px">
  <g transform="matrix(1, 0, 0, 1, 1387.0783691406252, 204.0071258544923)">
    <g id="Layer_1">
      <path opacity="1.000000" stroke="none" d="M -425.42 217.274 C -425.5 231.431 -425.62 245.588 -425.63 259.745 C -425.66 288.739 -425.63 317.734 -425.64 346.728 C -425.65 354.237 -429.29 358.401 -436.75 359.367 C -438.73 359.622 -440.73 359.707 -442.72 359.708 C -522.21 359.724 -601.69 359.726 -681.17 359.7 C -683.49 359.7 -685.83 359.528 -688.12 359.184 C -693.9 358.313 -697.84 353.765 -697.85 347.841 C -697.87 268.69 -697.86 189.539 -697.85 110.388 C -697.85 109.579 -697.73 108.771 -697.62 107.34 C -695.73 107.34 -693.96 107.34 -692.19 107.34 C -659.03 107.34 -625.87 107.341 -592.71 107.339 C -581.23 107.339 -577.28 103.451 -577.28 92.149 C -577.27 59.156 -577.27 26.162 -577.27 -6.832 C -577.27 -8.636 -577.27 -10.441 -577.27 -12.734 C -543.15 -12.734 -509.37 -12.734 -475.06 -12.39 C -476.54 -6.561 -480.3 -4.603 -486.09 -5.751 C -489.12 -6.353 -492.32 -6.12 -495.64 -6.273 C -496.48 -3.329 -497.25 -0.63 -498.02 2.071 C -499.24 6.38 -502.43 11.464 -501.13 14.788 C -499.77 18.275 -494.14 20.145 -490.29 22.595 C -485.83 25.433 -485.97 32.802 -490.62 35.362 C -494.53 37.516 -498.46 39.627 -502.6 41.874 C -500.79 49.435 -499.02 56.784 -497.2 64.334 C -492.19 64.334 -487.54 64.28 -482.89 64.351 C -478.81 64.412 -474.94 71.227 -477 74.729 C -479.44 78.848 -482 82.889 -484.61 87.129 C -479.3 92.698 -474.15 98.095 -468.34 104.178 C -466.29 102.164 -464.42 100.322 -462.17 98.488 C -460.07 97.593 -458.35 96.692 -456.43 95.759 C -449.71 95.667 -445.72 99.48 -446 105.514 C -446.18 109.329 -446.4 113.141 -446.62 117.329 C -440.45 119.129 -434.39 120.799 -428.41 122.735 C -427.3 123.096 -425.73 124.588 -425.8 125.455 C -425.88 126.661 -427.1 128.064 -428.2 128.868 C -432.88 132.277 -437.43 132.16 -441.78 128.038 C -442.95 126.926 -444.57 126.283 -446.53 125.092 C -449.48 128.446 -452.43 131.796 -455.63 135.432 C -453.59 140.405 -448.92 144.406 -452.28 152.27 C -455.7 160.27 -461.63 160.224 -467.78 161.922 C -467.95 163.366 -468.17 164.658 -468.26 165.958 C -468.95 175.602 -468.92 175.54 -459.87 178.283 C -458.32 178.752 -456.32 179.688 -455.72 180.968 C -450.6 191.887 -450.69 191.923 -456.85 202.173 C -457.1 202.583 -457.18 203.091 -457.44 203.841 C -454.21 206.776 -450.93 209.763 -447.37 212.997 C -446.74 212.422 -445.68 211.459 -444.3 210.389 C -442.06 209.33 -440.14 208.379 -437.82 207.404 C -433.59 209.049 -429.76 210.719 -425.81 212.438 C -425.68 214.064 -425.55 215.669 -425.42 217.274 M -538.85 247.73 C -518.98 222.494 -497.91 198.399 -472.56 178.881 C -478.96 169.06 -485.11 159.627 -491.48 149.848 C -522.25 176.955 -550.38 206.618 -572.44 241.163 C -584.79 229.186 -596.9 217.435 -609.14 205.556 C -616.54 214.704 -623.19 222.921 -629.23 230.379 C -609.22 250.285 -589.35 270.05 -569.78 289.515 C -560.05 276.343 -549.68 262.309 -538.85 247.73 Z" style="stroke-width: 1;" fill="#FEFEFE"/>
      <path opacity="1.000000" stroke="none" d="M -677.71 76.668 C -683.84 76.668 -689.48 76.668 -694.83 76.668 C -665.82 47.778 -636.82 18.903 -608.23 -9.558 C -608.23 18.127 -608.23 47.074 -608.23 76.669 C -631.07 76.669 -654.14 76.669 -677.71 76.668 Z" style="stroke-width: 1;" fill="#FCFCFD"/>
      <path opacity="1.000000" stroke="none" d="M -462.17 98.488 C -463.72 98.268 -465.29 98.464 -466 97.775 C -469.7 94.182 -473.04 90.203 -476.8 86.682 C -479.27 84.374 -479.39 82.434 -477.39 79.887 C -476.06 78.194 -475.13 76.189 -473.85 74.448 C -471.86 71.74 -471.17 69.509 -473.04 65.964 C -475 62.249 -477.54 62.257 -480.71 62.309 C -484.18 62.366 -487.65 62.322 -491.23 62.322 C -492.78 56.114 -494.45 50.379 -495.49 44.532 C -495.76 43.044 -494.44 40.746 -493.15 39.632 C -491.31 38.043 -488.86 37.103 -486.6 36.066 C -483.71 34.747 -481.93 33.284 -481.83 29.465 C -481.73 25.717 -483.32 24.186 -486.09 22.562 C -495.86 16.832 -495.82 16.766 -492.71 5.773 C -489.99 -3.819 -489.99 -3.872 -479.89 -3.351 C -476.36 -3.168 -473.24 -2.734 -471.2 -6.98 C -469.87 -9.768 -469.82 -11.596 -471.33 -14.193 C -477.27 -24.45 -477.19 -24.501 -468.48 -32.771 C -461.76 -39.149 -461.82 -39.047 -453.54 -34.129 C -451.1 -32.678 -449.17 -29.912 -445.15 -31.978 C -441.12 -34.054 -440.47 -36.693 -440.51 -40.673 C -440.61 -50.772 -440.45 -50.774 -430.88 -53.124 C -419.63 -55.883 -419.63 -55.883 -414.17 -45.921 C -410.71 -39.615 -404.77 -39.423 -401 -45.495 C -395.02 -55.138 -395.02 -55.138 -383.96 -51.835 C -374.66 -49.059 -374.76 -49.058 -374.67 -39.38 C -374.64 -36.476 -376.03 -33.222 -372.21 -30.989 C -369.14 -29.191 -366.9 -28.915 -363.7 -30.789 C -353.84 -36.555 -353.75 -36.396 -346.15 -28.306 C -338.9 -20.578 -338.9 -20.578 -344.45 -11.301 C -348.49 -4.549 -345.9 0.231 -338.14 0.353 C -327.12 0.525 -327.12 0.525 -324.49 11.142 C -321.85 21.788 -321.84 21.789 -331.59 27.034 C -334.02 28.339 -336.44 29.104 -336.51 32.965 C -336.59 36.862 -334.91 38.528 -331.95 40.246 C -322.15 45.932 -322.2 46.019 -325.4 56.83 C -328.27 66.548 -328.27 66.577 -338.51 66.394 C -341.84 66.335 -344.89 65.899 -346.82 69.939 C -348.11 72.637 -348.4 74.42 -346.89 77.11 C -340.97 87.624 -341.07 87.695 -349.6 95.93 C -351.75 98.006 -353.95 100.023 -356.35 102.269 C -360.01 100.042 -363.53 97.857 -367.09 95.748 C -371.71 93.013 -377.69 96.366 -377.8 101.732 C -377.88 105.395 -377.89 109.06 -377.96 112.723 C -377.96 113.035 -378.15 113.344 -378.41 114.111 C -384.1 115.488 -390.01 117.064 -396 118.241 C -397.15 118.468 -399.06 117.468 -399.84 116.44 C -401.42 114.332 -402.61 111.888 -403.69 109.46 C -405.15 106.182 -406.95 104.401 -411.07 104.273 C -415.07 104.148 -416.19 106.42 -417.69 108.976 C -419.45 111.975 -421.24 114.954 -423.18 118.224 C -430.07 116.195 -436.72 114.238 -443.55 112.228 C -443.55 108.228 -443.8 104.404 -443.48 100.63 C -443.19 97.265 -444.17 95.319 -447.14 93.385 C -450.19 91.402 -452.29 92.09 -454.73 93.773 C -455.38 94.218 -456.01 94.679 -456.64 95.462 C -458.35 96.692 -460.07 97.593 -462.17 98.488 M -430.07 5.448 C -443.93 17.747 -447.12 35.585 -438.11 50.33 C -429.39 64.603 -411.25 70.713 -395.87 64.249 C -383.5 59.053 -376.14 49.582 -374.84 36.229 C -373.42 21.663 -379.19 10.02 -391.97 2.795 C -404.68 -4.395 -417.44 -3.443 -430.07 5.448 Z" style="stroke-width: 1;" fill="#FD7E00"/>
      <path opacity="1.000000" stroke="none" d="M -539.08 248.003 C -549.68 262.309 -560.05 276.343 -569.78 289.515 C -589.35 270.05 -609.22 250.285 -629.23 230.379 C -623.19 222.921 -616.54 214.704 -609.14 205.556 C -596.9 217.435 -584.79 229.186 -572.44 241.163 C -550.38 206.618 -522.25 176.955 -491.48 149.848 C -485.11 159.627 -478.96 169.06 -472.56 178.881 C -497.91 198.399 -518.98 222.494 -539.08 248.003 Z" style="stroke-width: 1;" fill="#10BE04"/>
      <path opacity="1.000000" stroke="none" d="M -444.3 210.389 C -447.5 207.323 -450.38 204.149 -453.23 201.001 C -452.88 200.189 -452.77 199.423 -452.33 199.003 C -445.97 192.916 -448.37 186.366 -451.78 180.187 C -452.7 178.502 -455.7 177.753 -457.89 177.013 C -461.05 175.948 -464.38 175.624 -463.51 170.72 C -462.79 166.682 -464.31 161.752 -457.58 161.473 C -455.41 161.384 -452.35 160.676 -451.36 159.163 C -449.23 155.908 -446.96 151.926 -447.02 148.281 C -447.08 144.859 -450.07 141.489 -451.68 138.271 C -448.92 135.215 -446.26 132.274 -443.69 129.425 C -442.53 129.962 -441.83 130.118 -441.36 130.531 C -436.43 134.819 -431.63 135.346 -425.23 132.651 C -420.68 130.734 -419.62 127.784 -419.08 124.216 C -418.33 119.294 -415.36 119.235 -411.59 119.502 C -408.15 119.745 -404.09 118.986 -404.2 124.234 C -404.4 133.298 -396.25 133.165 -391.08 136.02 C -389.86 136.693 -386.8 134.761 -384.99 133.467 C -381.44 130.936 -378.8 131.371 -376.3 134.886 C -375.06 136.629 -373.38 138.056 -371.7 139.826 C -372.14 140.7 -372.36 141.768 -373.01 142.369 C -379.58 148.405 -375.55 154.727 -373.37 160.846 C -372.96 161.997 -370.87 162.799 -369.39 163.28 C -361.6 165.827 -361.58 165.774 -361.77 173.943 C -361.79 175.094 -361.89 176.243 -361.97 177.671 C -367.13 179.898 -373.07 179.274 -376.29 186.647 C -379.48 193.94 -375.01 197.722 -373.24 203.043 C -374.06 203.946 -374.8 204.836 -375.61 205.642 C -381.64 211.593 -381.89 211.938 -388.91 207.094 C -393.15 204.166 -395.64 207.779 -398.94 208.301 C -403.06 208.951 -405.46 211.096 -405.75 215.4 C -406.08 220.371 -408.77 221.599 -413.63 221.507 C -418.46 221.415 -421.11 220.191 -421.43 215.16 C -421.69 211.155 -423.42 208.337 -427.73 207.461 C -429.31 207.139 -430.81 206.205 -432.22 205.335 C -434.65 203.828 -436.5 204.218 -438.08 207.052 C -440.14 208.379 -442.06 209.33 -444.3 210.389 M -417.38 189.724 C -408.68 191.047 -400.99 187.698 -396.8 180.763 C -392.55 173.73 -392.95 165.405 -397.87 158.765 C -402.8 152.103 -411.02 149.269 -419.09 151.447 C -427.02 153.585 -433.2 161.474 -433.51 169.849 C -433.83 178.761 -427.76 186.551 -417.38 189.724 Z" style="stroke-width: 1;" fill="#FD7E00"/>
    </g>
  </g>
</svg>