<?xml version="1.0" encoding="utf-8"?>
<svg xmlns="http://www.w3.org/2000/svg" viewBox="138.9362 685.4534 1077.1328 420.8655" width="1077.13px" height="420.865px">
  <path fill="#FEFEFE" opacity="1.000000" stroke="none" d="M 282.874 303.388 C 282.802 317.545 282.682 331.702 282.666 345.859 C 282.633 374.853 282.663 403.848 282.652 432.842 C 282.649 440.351 279.003 444.515 271.543 445.481 C 269.571 445.736 267.566 445.821 265.576 445.822 C 186.092 445.838 106.607 445.84 27.123 445.814 C 24.806 445.814 22.467 445.642 20.177 445.298 C 14.394 444.427 10.453 439.879 10.452 433.955 C 10.429 354.804 10.437 275.653 10.447 196.502 C 10.447 195.693 10.566 194.885 10.679 193.454 C 12.57 193.454 14.339 193.454 16.108 193.454 C 49.268 193.454 82.428 193.455 115.588 193.453 C 127.067 193.453 131.016 189.565 131.017 178.263 C 131.022 145.27 131.025 112.276 131.028 79.282 C 131.028 77.478 131.028 75.673 131.028 73.38 C 165.145 73.38 198.931 73.38 233.242 73.724 C 231.758 79.553 227.996 81.511 222.211 80.363 C 219.178 79.761 215.979 79.994 212.657 79.841 C 211.819 82.785 211.047 85.484 210.281 88.185 C 209.059 92.494 205.863 97.578 207.163 100.902 C 208.526 104.389 214.159 106.259 218.006 108.709 C 222.462 111.547 222.325 118.916 217.676 121.476 C 213.766 123.63 209.832 125.741 205.693 127.988 C 207.512 135.549 209.28 142.898 211.097 150.448 C 216.104 150.448 220.757 150.394 225.408 150.465 C 229.486 150.526 233.362 157.341 231.294 160.843 C 228.862 164.962 226.297 169.003 223.688 173.243 C 229.001 178.812 234.15 184.209 239.954 190.292 C 242.004 188.278 243.878 186.436 246.126 184.602 C 248.224 183.707 249.948 182.806 251.872 181.873 C 258.585 181.781 262.58 185.594 262.298 191.628 C 262.119 195.443 261.901 199.255 261.681 203.443 C 267.848 205.243 273.911 206.913 279.887 208.849 C 281.001 209.21 282.564 210.702 282.501 211.569 C 282.413 212.775 281.201 214.178 280.096 214.982 C 275.414 218.391 270.871 218.274 266.519 214.152 C 265.346 213.04 263.729 212.397 261.766 211.206 C 258.813 214.56 255.864 217.91 252.663 221.546 C 254.706 226.519 259.38 230.52 256.019 238.384 C 252.601 246.384 246.665 246.338 240.521 248.036 C 240.343 249.48 240.124 250.772 240.033 252.072 C 239.351 261.716 239.378 261.654 248.427 264.397 C 249.972 264.866 251.979 265.802 252.579 267.082 C 257.698 278.001 257.612 278.037 251.444 288.287 C 251.197 288.697 251.113 289.205 250.855 289.955 C 254.085 292.89 257.371 295.877 260.93 299.111 C 261.559 298.536 262.614 297.573 263.993 296.503 C 266.236 295.444 268.155 294.493 270.474 293.518 C 274.707 295.163 278.54 296.833 282.487 298.552 C 282.617 300.178 282.746 301.783 282.874 303.388 M 169.447 333.844 C 189.32 308.608 210.388 284.513 235.734 264.995 C 229.334 255.174 223.186 245.741 216.813 235.962 C 186.052 263.069 157.919 292.732 135.855 327.277 C 123.51 315.3 111.399 303.549 99.154 291.67 C 91.752 300.818 85.104 309.035 79.07 316.493 C 99.08 336.399 118.947 356.164 138.514 375.629 C 148.248 362.457 158.619 348.423 169.447 333.844 Z" style="stroke-width: 1;" transform="matrix(1, 0, 0, 1, 128.49905395507812, 660.4851684570312)"/>
  <path fill="#FCFCFD" opacity="1.000000" stroke="none" d="M 773.921 280.145 C 779.74 294.017 780.387 308.026 777.129 322.096 C 772.028 344.119 754.522 360.097 730.985 362.181 C 714.181 363.67 697.139 362.47 679.891 362.47 C 679.891 324.917 679.891 286.555 679.891 247.833 C 681.024 247.742 682.292 247.514 683.551 247.559 C 700.811 248.177 718.265 247.458 735.277 249.859 C 752.986 252.359 766.195 263.041 773.921 280.145 M 698.595 320.979 C 698.595 329.894 698.595 338.809 698.595 347.501 C 707.73 347.501 716.236 347.943 724.68 347.407 C 740.864 346.379 753.246 336.739 757.134 321.688 C 758.811 315.199 759.576 308.16 759.107 301.488 C 757.549 279.353 745.957 266.2 725.757 263.852 C 716.951 262.829 707.926 263.68 698.595 263.68 C 698.595 282.458 698.595 301.218 698.595 320.979 Z" style="stroke-width: 1;" transform="matrix(1, 0, 0, 1, 128.49905395507812, 660.4851684570312)"/>
  <path fill="#FCFCFD" opacity="1.000000" stroke="none" d="M 547.448 280.931 C 547.448 277.694 547.448 274.885 547.448 271.813 C 553.834 271.813 559.917 271.813 566.306 271.813 C 566.306 302.191 566.306 332.574 566.306 363.22 C 560.241 363.22 554.161 363.22 547.525 363.22 C 547.525 359.27 547.525 355.247 547.525 350.188 C 540.133 358.074 532.294 363.122 522.539 364.441 C 496.768 367.928 475.071 350.512 472.649 324.444 C 471.665 313.846 472.495 303.53 477.394 293.795 C 490.562 267.628 524.181 261.888 545.157 282.281 C 545.619 282.729 546.1 283.157 546.966 283.958 C 547.177 282.816 547.312 282.088 547.448 280.931 M 545.461 305.386 C 540.686 293.604 532.139 286.883 519.259 286.717 C 508.062 286.573 498.468 293.443 494.208 304.051 C 491.396 311.052 491.189 318.307 492.689 325.601 C 495.39 338.741 506.564 348.266 519.288 348.446 C 531.99 348.625 543.542 339.968 546.032 326.767 C 547.278 320.158 545.855 313.046 545.461 305.386 Z" style="stroke-width: 1;" transform="matrix(1, 0, 0, 1, 128.49905395507812, 660.4851684570312)"/>
  <path fill="#0E0906" opacity="1.000000" stroke="none" d="M 263.669 296.61 C 262.614 297.573 261.559 298.536 260.93 299.111 C 257.371 295.877 254.085 292.89 250.855 289.955 C 251.113 289.205 251.197 288.697 251.444 288.287 C 257.612 278.037 257.698 278.001 252.579 267.082 C 251.979 265.802 249.972 264.866 248.427 264.397 C 239.378 261.654 239.351 261.716 240.033 252.072 C 240.124 250.772 240.343 249.48 240.521 248.036 C 246.665 246.338 252.601 246.384 256.019 238.384 C 259.38 230.52 254.706 226.519 252.663 221.546 C 255.864 217.91 258.813 214.56 261.766 211.206 C 263.729 212.397 265.346 213.04 266.519 214.152 C 270.871 218.274 275.414 218.391 280.096 214.982 C 281.201 214.178 282.413 212.775 282.501 211.569 C 282.564 210.702 281.001 209.21 279.887 208.849 C 273.911 206.913 267.848 205.243 261.681 203.443 C 261.901 199.255 262.119 195.443 262.298 191.628 C 262.58 185.594 258.585 181.781 251.857 181.544 C 252.282 180.793 252.918 180.332 253.564 179.887 C 256.009 178.204 258.108 177.516 261.155 179.499 C 264.128 181.433 265.104 183.379 264.817 186.744 C 264.495 190.518 264.743 194.342 264.743 198.342 C 271.574 200.352 278.226 202.309 285.119 204.338 C 287.061 201.068 288.849 198.089 290.605 195.09 C 292.102 192.534 293.222 190.262 297.228 190.387 C 301.344 190.515 303.151 192.296 304.607 195.574 C 305.686 198.002 306.88 200.446 308.461 202.554 C 309.233 203.582 311.147 204.582 312.301 204.355 C 318.288 203.178 324.195 201.602 329.883 200.225 C 330.142 199.458 330.333 199.149 330.339 198.837 C 330.406 195.174 330.422 191.509 330.497 187.846 C 330.607 182.48 336.59 179.127 341.21 181.862 C 344.771 183.971 348.287 186.156 351.947 188.383 C 354.343 186.137 356.549 184.12 358.697 182.044 C 367.222 173.809 367.33 173.738 361.41 163.224 C 359.896 160.534 360.183 158.751 361.474 156.053 C 363.406 152.013 366.459 152.449 369.784 152.508 C 380.027 152.691 380.028 152.662 382.9 142.944 C 386.096 132.133 386.146 132.046 376.347 126.36 C 373.388 124.642 371.71 122.976 371.785 119.079 C 371.859 115.218 374.28 114.453 376.706 113.148 C 386.453 107.903 386.452 107.902 383.812 97.256 C 381.179 86.639 381.179 86.639 370.154 86.467 C 362.397 86.345 359.812 81.565 363.851 74.813 C 369.401 65.536 369.401 65.536 362.145 57.808 C 354.55 49.718 354.457 49.559 344.599 55.325 C 341.394 57.199 339.159 56.923 336.085 55.125 C 332.268 52.892 333.656 49.638 333.629 46.734 C 333.54 37.056 333.636 37.055 324.338 34.279 C 313.273 30.976 313.273 30.976 307.295 40.619 C 303.531 46.691 297.588 46.499 294.128 40.193 C 288.662 30.231 288.662 30.231 277.422 32.99 C 267.844 35.34 267.686 35.342 267.79 45.441 C 267.831 49.421 267.181 52.06 263.142 54.136 C 259.124 56.202 257.194 53.436 254.753 51.985 C 246.481 47.067 246.541 46.965 239.822 53.343 C 231.111 61.613 231.023 61.664 236.969 71.921 C 238.474 74.518 238.429 76.346 237.094 79.134 C 235.061 83.38 231.941 82.946 228.405 82.763 C 218.308 82.242 218.306 82.295 215.588 91.887 C 212.473 102.88 212.434 102.946 222.209 108.676 C 224.98 110.3 226.566 111.831 226.469 115.579 C 226.37 119.398 224.584 120.861 221.7 122.18 C 219.433 123.217 216.992 124.157 215.151 125.746 C 213.86 126.86 212.539 129.158 212.805 130.646 C 213.851 136.493 215.521 142.228 217.067 148.436 C 220.648 148.436 224.117 148.48 227.585 148.423 C 230.759 148.371 233.296 148.363 235.254 152.078 C 237.124 155.623 236.434 157.854 234.444 160.562 C 233.166 162.303 232.238 164.308 230.906 166.001 C 228.902 168.548 229.028 170.488 231.495 172.796 C 235.259 176.317 238.593 180.296 242.296 183.889 C 243.007 184.578 244.577 184.382 245.751 184.595 C 243.878 186.436 242.004 188.278 239.954 190.292 C 234.15 184.209 229.001 178.812 223.688 173.243 C 226.297 169.003 228.862 164.962 231.294 160.843 C 233.362 157.341 229.486 150.526 225.408 150.465 C 220.757 150.394 216.104 150.448 211.097 150.448 C 209.28 142.898 207.512 135.549 205.693 127.988 C 209.832 125.741 213.766 123.63 217.676 121.476 C 222.325 118.916 222.462 111.547 218.006 108.709 C 214.159 106.259 208.526 104.389 207.163 100.902 C 205.863 97.578 209.059 92.494 210.281 88.185 C 211.047 85.484 211.819 82.785 212.657 79.841 C 215.979 79.994 219.178 79.761 222.211 80.363 C 227.996 81.511 231.758 79.553 233.714 73.695 C 231.944 69.625 230.454 65.798 228.439 62.271 C 226.783 59.374 226.658 57.371 229.408 55 C 233.185 51.745 236.607 48.066 240.075 44.467 C 242.147 42.316 244.105 41.844 246.588 43.841 C 248.395 45.294 250.6 46.26 252.359 47.759 C 255.593 50.517 258.503 50.337 262.237 48.356 C 265.739 46.498 265.59 43.888 265.591 40.862 C 265.594 29.182 265.617 29.182 277.232 26.384 C 287.526 23.905 287.514 23.912 292.786 32.794 C 293.971 34.79 294.979 37.009 296.583 38.61 C 298.864 40.887 304.775 39.327 306.736 36.251 C 314.468 24.121 314.468 24.121 328.062 28.483 C 337.17 31.405 337.149 31.402 335.745 40.806 C 335.067 45.34 335.217 49.612 340.698 51.126 C 342.266 51.558 344.137 51.8 345.639 51.354 C 347.839 50.702 349.888 49.449 351.902 48.28 C 358.427 44.494 359.148 44.635 363.826 50.306 C 366.148 53.12 368.479 55.983 371.168 58.425 C 373.849 60.86 373.848 62.999 371.824 65.741 C 370.25 67.872 368.942 70.209 367.608 72.507 C 364.411 78.017 367.258 83.168 373.582 83.53 C 377.218 83.738 380.894 83.888 384.444 84.6 C 385.732 84.859 387.349 86.498 387.715 87.813 C 389.445 94.026 390.793 100.346 392.367 107.004 C 388.336 109.052 384.113 110.733 380.466 113.249 C 378.639 114.51 376.904 117.28 376.877 119.389 C 376.851 121.501 378.47 124.518 380.289 125.624 C 391.798 132.621 391.881 132.481 388.039 145.633 C 387.853 146.269 387.664 146.916 387.585 147.57 C 386.939 152.942 384.285 155.543 378.586 154.55 C 376.483 154.183 374.264 154.467 372.097 154.487 C 365.921 154.544 362.711 159.657 365.413 165.121 C 366.225 166.764 367.026 168.412 367.871 170.038 C 371.522 177.068 371.527 177.066 366.029 182.54 C 364.022 184.539 361.707 186.316 360.07 188.582 C 356.655 193.312 353.158 192.583 349.135 189.55 C 347.022 187.958 344.728 186.524 342.337 185.402 C 338.128 183.428 332.742 187.015 332.568 191.665 C 332.401 196.12 333.734 201.838 331.479 204.667 C 329.241 207.477 323.351 207.375 319.065 208.558 C 318.265 208.779 317.453 208.987 316.685 209.295 C 311.893 211.217 308.322 210.467 306.763 204.95 C 306.566 204.253 305.908 203.687 305.135 202.595 C 305.49 211.488 311.99 218.528 319.524 218.301 C 321.469 218.243 323.428 216.698 325.273 215.649 C 330.126 212.889 339.341 216.666 340.05 222.142 C 340.283 223.937 338.694 226.123 337.586 227.912 C 332.403 236.28 335.926 246.488 345.502 248.752 C 350.781 250 352.01 252.455 351.674 257.38 C 351.353 262.086 350.312 265.366 344.886 265.953 C 342.509 266.21 339.238 266.839 338.139 268.481 C 335.786 271.997 333.695 276.181 333.228 280.289 C 332.931 282.892 335.577 285.959 337.226 288.617 C 338.822 291.188 338.143 292.944 335.945 294.525 C 335.406 294.913 334.69 295.154 334.316 295.657 C 330.255 301.129 325.815 300.878 321.025 296.669 C 318.768 294.685 316.451 294.427 313.877 296.279 C 312.835 297.029 311.46 297.473 310.175 297.699 C 305.566 298.511 303.315 301.443 302.711 305.814 C 302.049 310.605 300.515 313.92 294.708 311.597 C 293.841 311.251 292.705 311.378 291.732 311.532 C 288.321 312.072 286.503 310.811 285.915 307.289 C 285.686 305.915 284.417 304.715 283.247 303.412 C 282.746 301.783 282.617 300.178 282.487 298.552 C 278.54 296.833 274.707 295.163 270.616 293.142 C 271.794 290.332 273.646 289.942 276.079 291.449 C 277.484 292.319 278.99 293.253 280.569 293.575 C 284.878 294.451 286.612 297.269 286.868 301.274 C 287.188 306.305 289.837 307.529 294.669 307.621 C 299.528 307.713 302.213 306.485 302.548 301.514 C 302.838 297.21 305.242 295.065 309.354 294.415 C 312.655 293.893 315.144 290.28 319.388 293.208 C 326.406 298.052 326.652 297.707 332.683 291.756 C 333.5 290.95 334.234 290.06 335.053 289.157 C 333.285 283.836 328.819 280.054 332.005 272.761 C 335.226 265.388 341.172 266.012 346.329 263.785 C 346.408 262.357 346.504 261.208 346.53 260.057 C 346.719 251.888 346.697 251.941 338.903 249.394 C 337.429 248.913 335.335 248.111 334.926 246.96 C 332.752 240.841 328.719 234.519 335.284 228.483 C 335.937 227.882 336.16 226.814 336.593 225.94 C 334.922 224.17 333.238 222.743 331.998 221 C 329.497 217.485 326.859 217.05 323.311 219.581 C 321.498 220.875 318.438 222.807 317.219 222.134 C 312.042 219.279 303.895 219.412 304.093 210.348 C 304.207 205.1 300.142 205.859 296.704 205.616 C 292.936 205.349 289.964 205.408 289.219 210.33 C 288.678 213.898 287.622 216.848 283.069 218.765 C 276.671 221.46 271.868 220.933 266.937 216.645 C 266.462 216.232 265.764 216.076 264.606 215.539 C 262.033 218.388 259.375 221.329 256.613 224.385 C 258.226 227.603 261.217 230.973 261.277 234.395 C 261.341 238.04 259.072 242.022 256.937 245.277 C 255.945 246.79 252.883 247.498 250.719 247.587 C 243.987 247.866 245.505 252.796 244.787 256.834 C 243.915 261.738 247.248 262.062 250.408 263.127 C 252.601 263.867 255.592 264.616 256.521 266.301 C 259.925 272.48 262.33 279.03 255.969 285.117 C 255.53 285.537 255.421 286.303 255.068 287.115 C 257.92 290.263 260.795 293.437 263.669 296.61 M 301.39 200.466 C 304.811 199.632 302.871 197.062 301.899 196.731 C 299.385 195.876 296.496 195.395 293.905 195.775 C 292.424 195.991 291.232 198.182 289.91 199.484 C 290.178 199.817 290.447 200.15 290.715 200.483 C 293.992 200.483 297.269 200.483 301.39 200.466 M 284.163 301 C 284.163 301 284.041 301.074 284.163 301 Z" style="stroke-width: 1;" transform="matrix(1, 0, 0, 1, 128.49905395507812, 660.4851684570312)"/>
  <path fill="#FBFBFC" opacity="1.000000" stroke="none" d="M 859.514 274.495 C 886.785 287.454 890.649 320.496 879.948 340.704 C 868.04 363.19 838.111 371.892 815.044 359.555 C 798.124 350.506 788.861 330.699 792.013 310.312 C 797.021 277.925 828.214 261.228 859.514 274.495 M 851.389 289.99 C 833.576 281.845 815.91 289.611 812.323 308.098 C 810.945 315.198 811.364 323.174 813.087 330.234 C 816.268 343.269 829.394 350.514 842.563 347.948 C 854.728 345.578 862.51 337.632 865.086 324.951 C 868.018 310.517 863.193 297.729 851.389 289.99 Z" style="stroke-width: 1;" transform="matrix(1, 0, 0, 1, 128.49905395507812, 660.4851684570312)"/>
  <path fill="#FBFBFC" opacity="1.000000" stroke="none" d="M 354.307 248.985 C 356.936 248.251 359.672 247.71 362.427 247.582 C 366.236 247.404 370.06 247.537 374.105 247.537 C 385.425 279.277 396.681 310.835 408.31 343.439 C 409.275 341.065 409.972 339.516 410.544 337.922 C 420.866 309.17 431.234 280.434 441.396 251.625 C 442.529 248.412 443.908 247.219 447.333 247.451 C 452.296 247.787 457.3 247.537 463.027 247.537 C 448.412 286.463 433.966 324.936 419.587 363.234 C 419.075 363.337 418.912 363.398 418.749 363.398 C 411.767 363.369 404.784 363.335 397.802 363.302 C 395.281 357.016 392.653 350.77 390.258 344.436 C 378.279 312.758 366.362 281.056 354.307 248.985 Z" style="stroke-width: 1;" transform="matrix(1, 0, 0, 1, 128.49905395507812, 660.4851684570312)"/>
  <path fill="#FCFCFD" opacity="1.000000" stroke="none" d="M 1087.57 333.479 C 1087.57 343.616 1087.57 353.254 1087.57 363.187 C 1081.26 363.187 1075.18 363.187 1068.7 363.187 C 1068.7 360.198 1068.7 357.137 1068.7 353.013 C 1059.82 361.846 1049.88 365.383 1038.39 364.705 C 1019.22 363.573 1005.18 351.469 1004.05 332.341 C 1002.86 312.298 1003.78 292.13 1003.78 271.779 C 1009.84 271.779 1015.78 271.779 1022.46 271.779 C 1022.46 273.316 1022.46 274.901 1022.46 276.486 C 1022.46 291.478 1022.43 306.47 1022.49 321.462 C 1022.51 324.444 1022.58 327.491 1023.19 330.391 C 1025.64 342.196 1033.99 348.637 1046.04 348.296 C 1057.91 347.959 1065.78 341.294 1067.77 329.629 C 1068.3 326.532 1068.48 323.342 1068.5 320.194 C 1068.57 304.208 1068.53 288.222 1068.53 271.888 C 1074.74 271.888 1080.81 271.888 1087.57 271.888 C 1087.57 292.156 1087.57 312.567 1087.57 333.479 Z" style="stroke-width: 1;" transform="matrix(1, 0, 0, 1, 128.49905395507812, 660.4851684570312)"/>
  <path fill="#FCFCFD" opacity="1.000000" stroke="none" d="M 30.591 162.782 C 24.457 162.782 18.822 162.782 13.464 162.782 C 42.48 133.892 71.48 105.017 100.064 76.556 C 100.064 104.241 100.064 133.188 100.064 162.783 C 77.231 162.783 54.161 162.783 30.591 162.782 Z" style="stroke-width: 1;" transform="matrix(1, 0, 0, 1, 128.49905395507812, 660.4851684570312)"/>
  <path fill="#FBFBFC" opacity="1.000000" stroke="none" d="M 909.393 284.296 C 925.013 266.462 952.595 267.677 966.753 275.545 C 976.046 280.709 982.555 289.416 985.089 300.604 C 978.729 300.604 972.485 300.68 966.248 300.512 C 965.423 300.49 964.308 299.382 963.872 298.506 C 958.599 287.921 949.449 285.181 938.735 286.592 C 928.612 287.925 922.487 294.384 919.506 303.909 C 916.852 312.386 916.84 321 919.037 329.551 C 921.79 340.268 929.184 347.316 938.552 348.534 C 951.345 350.198 958.383 346.503 965.005 334.62 C 971.632 334.62 978.277 334.62 984.95 334.62 C 981.822 349.937 967.552 362.489 951.178 364.449 C 929.9 366.997 913.344 359.533 904.235 343.286 C 894.176 325.346 896.225 300.905 909.393 284.296 Z" style="stroke-width: 1;" transform="matrix(1, 0, 0, 1, 128.49905395507812, 660.4851684570312)"/>
  <path fill="#FEFEFE" opacity="1.000000" stroke="none" d="M 610.591 273.479 C 610.591 303.586 610.591 333.193 610.591 363.14 C 604.404 363.14 598.338 363.14 591.928 363.14 C 591.928 322.372 591.928 281.401 591.928 240.27 C 598.022 240.27 603.976 240.27 610.591 240.27 C 610.591 251.154 610.591 262.066 610.591 273.479 Z" style="stroke-width: 1;" transform="matrix(1, 0, 0, 1, 128.49905395507812, 660.4851684570312)"/>
  <path fill="#FEFEFE" opacity="1.000000" stroke="none" d="M 635.588 327.479 C 635.588 308.697 635.588 290.416 635.588 271.84 C 641.905 271.84 647.962 271.84 654.307 271.84 C 654.307 302.202 654.307 332.561 654.307 363.201 C 648.274 363.201 642.211 363.201 635.588 363.201 C 635.588 351.478 635.588 339.728 635.588 327.479 Z" style="stroke-width: 1;" transform="matrix(1, 0, 0, 1, 128.49905395507812, 660.4851684570312)"/>
  <path fill="#FBFBFC" opacity="1.000000" stroke="none" d="M 634.467 241.519 C 639.102 235.433 644.681 233.647 650.236 236.18 C 655.234 238.459 658.12 243.941 657.15 249.312 C 655.872 256.388 649.262 260.818 642.37 259.218 C 634.848 257.472 631.583 250.443 634.467 241.519 Z" style="stroke-width: 1;" transform="matrix(1, 0, 0, 1, 128.49905395507812, 660.4851684570312)"/>
  <path fill="#FD7E00" opacity="1.000000" stroke="none" d="M 246.126 184.602 C 244.577 184.382 243.007 184.578 242.296 183.889 C 238.593 180.296 235.259 176.317 231.495 172.796 C 229.028 170.488 228.902 168.548 230.906 166.001 C 232.238 164.308 233.166 162.303 234.444 160.562 C 236.434 157.854 237.124 155.623 235.254 152.078 C 233.296 148.363 230.759 148.371 227.585 148.423 C 224.117 148.48 220.648 148.436 217.067 148.436 C 215.521 142.228 213.851 136.493 212.805 130.646 C 212.539 129.158 213.86 126.86 215.151 125.746 C 216.992 124.157 219.433 123.217 221.7 122.18 C 224.584 120.861 226.37 119.398 226.469 115.579 C 226.566 111.831 224.98 110.3 222.209 108.676 C 212.434 102.946 212.473 102.88 215.588 91.887 C 218.306 82.295 218.308 82.242 228.405 82.763 C 231.941 82.946 235.061 83.38 237.094 79.134 C 238.429 76.346 238.474 74.518 236.969 71.921 C 231.023 61.664 231.111 61.613 239.822 53.343 C 246.541 46.965 246.481 47.067 254.753 51.985 C 257.194 53.436 259.124 56.202 263.142 54.136 C 267.181 52.06 267.831 49.421 267.79 45.441 C 267.686 35.342 267.844 35.34 277.422 32.99 C 288.662 30.231 288.662 30.231 294.128 40.193 C 297.588 46.499 303.531 46.691 307.295 40.619 C 313.273 30.976 313.273 30.976 324.338 34.279 C 333.636 37.055 333.54 37.056 333.629 46.734 C 333.656 49.638 332.268 52.892 336.085 55.125 C 339.159 56.923 341.394 57.199 344.599 55.325 C 354.457 49.559 354.55 49.718 362.145 57.808 C 369.401 65.536 369.401 65.536 363.851 74.813 C 359.812 81.565 362.397 86.345 370.154 86.467 C 381.179 86.639 381.179 86.639 383.812 97.256 C 386.452 107.902 386.453 107.903 376.706 113.148 C 374.28 114.453 371.859 115.218 371.785 119.079 C 371.71 122.976 373.388 124.642 376.347 126.36 C 386.146 132.046 386.096 132.133 382.9 142.944 C 380.028 152.662 380.027 152.691 369.784 152.508 C 366.459 152.449 363.406 152.013 361.474 156.053 C 360.183 158.751 359.896 160.534 361.41 163.224 C 367.33 173.738 367.222 173.809 358.697 182.044 C 356.549 184.12 354.343 186.137 351.947 188.383 C 348.287 186.156 344.771 183.971 341.21 181.862 C 336.59 179.127 330.607 182.48 330.497 187.846 C 330.422 191.509 330.406 195.174 330.339 198.837 C 330.333 199.149 330.142 199.458 329.883 200.225 C 324.195 201.602 318.288 203.178 312.301 204.355 C 311.147 204.582 309.233 203.582 308.461 202.554 C 306.88 200.446 305.686 198.002 304.607 195.574 C 303.151 192.296 301.344 190.515 297.228 190.387 C 293.222 190.262 292.102 192.534 290.605 195.09 C 288.849 198.089 287.061 201.068 285.119 204.338 C 278.226 202.309 271.574 200.352 264.743 198.342 C 264.743 194.342 264.495 190.518 264.817 186.744 C 265.104 183.379 264.128 181.433 261.155 179.499 C 258.108 177.516 256.009 178.204 253.564 179.887 C 252.918 180.332 252.282 180.793 251.657 181.576 C 249.948 182.806 248.224 183.707 246.126 184.602 M 278.227 91.562 C 264.37 103.861 261.173 121.699 270.183 136.444 C 278.905 150.717 297.047 156.827 312.431 150.363 C 324.796 145.167 332.155 135.696 333.456 122.343 C 334.875 107.777 329.103 96.134 316.328 88.909 C 303.616 81.719 290.858 82.671 278.227 91.562 Z" style="stroke-width: 1;" transform="matrix(1, 0, 0, 1, 128.49905395507812, 660.4851684570312)"/>
  <path fill="#10BE04" opacity="1.000000" stroke="none" d="M 169.218 334.117 C 158.619 348.423 148.248 362.457 138.514 375.629 C 118.947 356.164 99.08 336.399 79.07 316.493 C 85.104 309.035 91.752 300.818 99.154 291.67 C 111.399 303.549 123.51 315.3 135.855 327.277 C 157.919 292.732 186.052 263.069 216.813 235.962 C 223.186 245.741 229.334 255.174 235.734 264.995 C 210.388 284.513 189.32 308.608 169.218 334.117 Z" style="stroke-width: 1;" transform="matrix(1, 0, 0, 1, 128.49905395507812, 660.4851684570312)"/>
  <path fill="#FD7E00" opacity="1.000000" stroke="none" d="M 263.993 296.503 C 260.795 293.437 257.92 290.263 255.068 287.115 C 255.421 286.303 255.53 285.537 255.969 285.117 C 262.33 279.03 259.925 272.48 256.521 266.301 C 255.592 264.616 252.601 263.867 250.408 263.127 C 247.248 262.062 243.915 261.738 244.787 256.834 C 245.505 252.796 243.987 247.866 250.719 247.587 C 252.883 247.498 255.945 246.79 256.937 245.277 C 259.072 242.022 261.341 238.04 261.277 234.395 C 261.217 230.973 258.226 227.603 256.613 224.385 C 259.375 221.329 262.033 218.388 264.606 215.539 C 265.764 216.076 266.462 216.232 266.937 216.645 C 271.868 220.933 276.671 221.46 283.069 218.765 C 287.622 216.848 288.678 213.898 289.219 210.33 C 289.964 205.408 292.936 205.349 296.704 205.616 C 300.142 205.859 304.207 205.1 304.093 210.348 C 303.895 219.412 312.042 219.279 317.219 222.134 C 318.438 222.807 321.498 220.875 323.311 219.581 C 326.859 217.05 329.497 217.485 331.998 221 C 333.238 222.743 334.922 224.17 336.593 225.94 C 336.16 226.814 335.937 227.882 335.284 228.483 C 328.719 234.519 332.752 240.841 334.926 246.96 C 335.335 248.111 337.429 248.913 338.903 249.394 C 346.697 251.941 346.719 251.888 346.53 260.057 C 346.504 261.208 346.408 262.357 346.329 263.785 C 341.172 266.012 335.226 265.388 332.005 272.761 C 328.819 280.054 333.285 283.836 335.053 289.157 C 334.234 290.06 333.5 290.95 332.683 291.756 C 326.652 297.707 326.406 298.052 319.388 293.208 C 315.144 290.28 312.655 293.893 309.354 294.415 C 305.242 295.065 302.838 297.21 302.548 301.514 C 302.213 306.485 299.528 307.713 294.669 307.621 C 289.837 307.529 287.188 306.305 286.868 301.274 C 286.612 297.269 284.878 294.451 280.569 293.575 C 278.99 293.253 277.484 292.319 276.079 291.449 C 273.646 289.942 271.794 290.332 270.216 293.166 C 268.155 294.493 266.236 295.444 263.993 296.503 M 290.918 275.838 C 299.617 277.161 307.309 273.812 311.501 266.877 C 315.752 259.844 315.347 251.519 310.432 244.879 C 305.501 238.217 297.28 235.383 289.203 237.561 C 281.273 239.699 275.094 247.588 274.79 255.963 C 274.467 264.875 280.532 272.665 290.918 275.838 Z" style="stroke-width: 1;" transform="matrix(1, 0, 0, 1, 128.49905395507812, 660.4851684570312)"/>
  <path fill="#150934" opacity="1.000000" stroke="none" d="M 300.969 200.475 C 297.269 200.483 293.992 200.483 290.715 200.483 C 290.447 200.15 290.178 199.817 289.91 199.484 C 291.232 198.182 292.424 195.991 293.905 195.775 C 296.496 195.395 299.385 195.876 301.899 196.731 C 302.871 197.062 304.811 199.632 300.969 200.475 Z" style="stroke-width: 1;" transform="matrix(1, 0, 0, 1, 128.49905395507812, 660.4851684570312)"/>
  <path fill="#150934" opacity="1.000000" stroke="none" d="M 284.102 301.037 C 284.041 301.074 284.163 301 284.102 301.037 Z" style="stroke-width: 1;" transform="matrix(1, 0, 0, 1, 128.49905395507812, 660.4851684570312)"/>
  <path fill="#0E0906" opacity="1.000000" stroke="none" d="M 278.519 91.352 C 290.858 82.671 303.616 81.719 316.328 88.909 C 329.103 96.134 334.875 107.777 333.456 122.343 C 332.155 135.696 324.796 145.167 312.431 150.363 C 297.047 156.827 278.905 150.717 270.183 136.444 C 261.173 121.699 264.37 103.861 278.519 91.352 M 316.62 93.885 C 306.706 86.856 296.081 86.388 285.532 91.669 C 274.465 97.209 269.635 106.575 269.414 119.159 C 269.085 137.912 287.427 153.047 307.45 147.927 C 319.509 144.844 327.145 136.553 329.214 124.469 C 331.277 112.415 327.747 101.753 316.62 93.885 Z" style="stroke-width: 1;" transform="matrix(1, 0, 0, 1, 128.49905395507812, 660.4851684570312)"/>
  <path fill="#0E0906" opacity="1.000000" stroke="none" d="M 290.521 275.746 C 280.532 272.665 274.467 264.875 274.79 255.963 C 275.094 247.588 281.273 239.699 289.203 237.561 C 297.28 235.383 305.501 238.217 310.432 244.879 C 315.347 251.519 315.752 259.844 311.501 266.877 C 307.309 273.812 299.617 277.161 290.521 275.746 M 291.796 240.921 C 280.054 244.824 275.657 254.967 281.37 264.973 C 285.071 271.456 293.499 273.998 300.837 270.845 C 308.385 267.602 312.104 260.03 309.771 252.652 C 307.214 244.56 301.733 240.744 291.796 240.921 Z" style="stroke-width: 1;" transform="matrix(1, 0, 0, 1, 128.49905395507812, 660.4851684570312)"/>
</svg>