<svg width="493" height="332" viewBox="0 0 493 332" fill="none" xmlns="http://www.w3.org/2000/svg">
<g id="Manual ValiDocu" clip-path="url(#clip0_1101_2)">
<rect id="Rectangle 67" width="493" height="332" rx="17" fill="var(--c-bg)"/>
<g id="ValiDocu">
<path id="V" d="M80.5873 164L57 90L74 85.5L99.1475 152.514H85.2273L140.5 30.5L163 26L102.585 164H80.5873Z" fill="var(--c-v)"/>
<path id="A" d="M199.284 164V145.532L198.087 141.599V109.28C198.087 103.01 196.206 98.1652 192.444 94.7452C188.682 91.2112 182.982 89.4442 175.344 89.4442C170.214 89.4442 165.141 90.2422 160.125 91.8382C155.223 93.4342 151.062 95.6572 147.642 98.5072L139.263 82.9462C144.165 79.1842 149.979 76.3912 156.705 74.5672C163.545 72.6292 170.613 71.6602 177.909 71.6602C191.133 71.6602 201.336 74.8522 208.518 81.2362C215.814 87.5062 219.462 97.2532 219.462 110.477V164H199.284ZM170.556 165.197C163.716 165.197 157.731 164.057 152.601 161.777C147.471 159.383 143.481 156.134 140.631 152.03C137.895 147.812 136.527 143.081 136.527 137.837C136.527 132.707 137.724 128.09 140.118 123.986C142.626 119.882 146.673 116.633 152.259 114.239C157.845 111.845 165.255 110.648 174.489 110.648H200.994V124.841H176.028C168.732 124.841 163.83 126.038 161.322 128.432C158.814 130.712 157.56 133.562 157.56 136.982C157.56 140.858 159.099 143.936 162.177 146.216C165.255 148.496 169.53 149.636 175.002 149.636C180.246 149.636 184.92 148.439 189.024 146.045C193.242 143.651 196.263 140.117 198.087 135.443L201.678 148.268C199.626 153.626 195.921 157.787 190.563 160.751C185.319 163.715 178.65 165.197 170.556 165.197Z" fill="var(--c-a)"/>
<path id="L" d="M232 164V48.5L253 44V164H232Z" fill="var(--c-l)"/>
<path id="I" d="M265.869 164L266 77.5L286.962 72V164H265.869ZM276.5 67.3161C272.562 67.3161 269.3 66.1762 266.712 63.8964C264.237 61.6166 263 58.8705 263 55.658C263 52.342 264.237 49.5958 266.712 47.4197C269.3 45.1399 272.562 44 276.5 44C280.438 44 283.644 45.0881 286.119 47.2642C288.706 49.3368 290 51.9793 290 55.1917C290 58.6114 288.763 61.5129 286.288 63.8964C283.813 66.1762 280.55 67.3161 276.5 67.3161Z" fill="var(--c-i)"/>
<path id="D" d="M57.2398 285.7C61.6055 285.7 61.6054 166 57.2398 166C52.8742 166 109.566 166 109.566 166C122.562 166 133.962 168.508 143.766 173.524C153.57 178.54 161.208 185.494 166.68 194.386C172.152 203.278 174.888 213.766 174.888 225.85C174.888 237.82 172.152 248.308 166.68 257.314C161.208 266.206 153.57 273.16 143.766 278.176C133.962 283.192 122.562 285.7 109.566 285.7C109.566 285.7 52.8741 285.7 57.2398 285.7ZM79.4698 266.89H108.54C117.546 266.89 125.298 265.18 131.796 261.76C138.408 258.34 143.481 253.552 147.015 247.396C150.663 241.24 152.487 234.058 152.487 225.85C152.487 217.528 150.663 210.346 147.015 204.304C143.481 198.148 138.408 193.36 131.796 189.94C125.298 186.52 117.546 184.81 108.54 184.81H79.4698V266.89Z" fill="var(--c-d)"/>
<path id="O" d="M222.115 286.897C212.767 286.897 204.445 284.902 197.149 280.912C189.853 276.808 184.096 271.222 179.878 264.154C175.66 257.086 173.551 249.049 173.551 240.043C173.551 230.923 175.66 222.886 179.878 215.932C184.096 208.864 189.853 203.335 197.149 199.345C204.445 195.355 212.767 193.36 222.115 193.36C231.577 193.36 239.956 195.355 247.252 199.345C254.662 203.335 260.419 208.807 264.523 215.761C268.741 222.715 270.85 230.809 270.85 240.043C270.85 249.049 268.741 257.086 264.523 264.154C260.419 271.222 254.662 276.808 247.252 280.912C239.956 284.902 231.577 286.897 222.115 286.897ZM222.115 268.6C227.359 268.6 232.033 267.46 236.137 265.18C240.241 262.9 243.433 259.594 245.713 255.262C248.107 250.93 249.304 245.857 249.304 240.043C249.304 234.115 248.107 229.042 245.713 224.824C243.433 220.492 240.241 217.186 236.137 214.906C232.033 212.626 227.416 211.486 222.286 211.486C217.042 211.486 212.368 212.626 208.264 214.906C204.274 217.186 201.082 220.492 198.688 224.824C196.294 229.042 195.097 234.115 195.097 240.043C195.097 245.857 196.294 250.93 198.688 255.262C201.082 259.594 204.274 262.9 208.264 265.18C212.368 267.46 216.985 268.6 222.115 268.6Z" fill="var(--c-o)"/>
<path id="C" d="M317.794 286.897C308.218 286.897 299.668 284.902 292.144 280.912C284.734 276.808 278.92 271.222 274.702 264.154C270.484 257.086 268.375 249.049 268.375 240.043C268.375 230.923 270.484 222.886 274.702 215.932C278.92 208.864 284.734 203.335 292.144 199.345C299.668 195.355 308.218 193.36 317.794 193.36C326.686 193.36 334.495 195.184 341.221 198.832C348.061 202.366 353.248 207.61 356.782 214.564L340.366 224.14C337.63 219.808 334.267 216.616 330.277 214.564C326.401 212.512 322.183 211.486 317.623 211.486C312.379 211.486 307.648 212.626 303.43 214.906C299.212 217.186 295.906 220.492 293.512 224.824C291.118 229.042 289.921 234.115 289.921 240.043C289.921 245.971 291.118 251.101 293.512 255.433C295.906 259.651 299.212 262.9 303.43 265.18C307.648 267.46 312.379 268.6 317.623 268.6C322.183 268.6 326.401 267.574 330.277 265.522C334.267 263.47 337.63 260.278 340.366 255.946L356.782 265.522C353.248 272.362 348.061 277.663 341.221 281.425C334.495 285.073 326.686 286.897 317.794 286.897Z" fill="var(--c-c)"/>
<path id="U" d="M398.514 286.897C390.762 286.897 383.922 285.472 377.994 282.622C372.066 279.658 367.449 275.212 364.143 269.284C360.837 263.242 359.184 255.661 359.184 246.541V198.7L380.559 194.386V243.634C380.559 251.842 382.383 257.998 386.031 262.102C389.793 266.092 395.094 268.087 401.934 268.087C406.95 268.087 411.282 267.061 414.93 265.009C418.692 262.957 421.599 259.879 423.651 255.775C425.817 251.671 426.9 246.598 426.9 240.556V198.7L448.275 194.386V285.7H427.926V261.076L431.517 268.6C428.439 274.528 423.936 279.088 418.008 282.28C412.08 285.358 405.582 286.897 398.514 286.897Z" fill="var(--c-u)"/>
</g>
<g id="ValiDocu_2">
<path id="Vector 2" d="M-143.5 1196H1418.5M3361 1196H1418.5M1418.5 1196V-636.5" stroke="#242F40" stroke-width="10"/>
</g>
</g>
<defs>
<clipPath id="clip0_1101_2">
<rect width="3498" height="3085" fill="white" transform="translate(-141 -638)"/>
</clipPath>
</defs>
</svg>
