<svg version="1.1" id="Layer_1" xmlns="http://www.w3.org/2000/svg" xmlns:xlink="http://www.w3.org/1999/xlink" x="0px" y="0px"
	 width="100%" viewBox="0 0 1563 1563" enable-background="new 0 0 1563 1563" xml:space="preserve">
<path fill="#150934" opacity="1.000000" stroke="none" 
	d="
M691.000000,1564.000000 
	C460.666718,1564.000000 230.833420,1564.000000 1.000093,1564.000000 
	C1.000062,1043.000122 1.000062,522.000244 1.000031,1.000302 
	C521.999756,1.000201 1042.999512,1.000201 1563.999512,1.000101 
	C1563.999634,521.999695 1563.999634,1042.999390 1563.999756,1563.999512 
	C1273.166626,1564.000000 982.333313,1564.000000 691.000000,1564.000000 
M504.127319,530.901611 
	C470.341187,530.901611 436.555054,530.901611 402.438232,530.901611 
	C402.438232,533.194397 402.438385,534.999146 402.438202,536.803833 
	C402.434723,569.797363 402.431946,602.790955 402.427338,635.784485 
	C402.425781,647.086365 398.477631,650.974121 386.998322,650.974609 
	C353.838135,650.976074 320.677979,650.975159 287.517792,650.975159 
	C285.749023,650.975159 283.980286,650.975159 282.088898,650.975159 
	C281.976379,652.406372 281.857300,653.214783 281.857208,654.023193 
	C281.847717,733.174377 281.839386,812.325562 281.861938,891.476746 
	C281.863617,897.400513 285.803894,901.948364 291.587219,902.819092 
	C293.877502,903.163940 296.216156,903.335144 298.532867,903.335938 
	C378.017303,903.361450 457.501770,903.359375 536.986206,903.342957 
	C538.976013,903.342529 540.981628,903.257690 542.952759,903.002563 
	C550.413513,902.036926 554.059692,897.872192 554.062439,890.363586 
	C554.072815,861.369263 554.043701,832.374939 554.076416,803.380615 
	C554.092346,789.223572 554.211731,775.066650 555.031250,760.956726 
	C555.826904,762.236084 557.096558,763.436462 557.325623,764.810303 
	C557.912903,768.332642 559.731628,769.593750 563.142029,769.053650 
	C564.114807,768.899536 565.251282,768.771973 566.118164,769.118713 
	C571.925659,771.441711 573.458984,768.126404 574.121277,763.335449 
	C574.725403,758.964905 576.976013,756.032288 581.584839,755.220459 
	C582.870667,754.993958 584.245178,754.550659 585.286987,753.800903 
	C587.861206,751.948486 590.178406,752.206848 592.435181,754.190063 
	C597.225098,758.399597 601.665588,758.650818 605.726440,753.178894 
	C606.099731,752.675842 606.816467,752.434509 607.355713,752.046631 
	C609.553223,750.465454 610.231750,748.709717 608.636230,746.138306 
	C606.986816,743.480103 604.341675,740.413025 604.638000,737.810181 
	C605.105591,733.702759 607.195801,729.518616 609.549133,726.002869 
	C610.648376,724.360657 613.919556,723.731323 616.296143,723.474426 
	C621.722229,722.887573 622.762817,719.607788 623.084290,714.901611 
	C623.420654,709.976685 622.191406,707.521362 616.911743,706.273254 
	C607.336426,704.009888 603.812866,693.801025 608.996033,685.433044 
	C610.104248,683.644104 611.693176,681.458618 611.460632,679.663086 
	C610.751526,674.187378 601.536682,670.410583 596.683472,673.170166 
	C594.837830,674.219543 592.879333,675.764038 590.934326,675.822510 
	C583.400024,676.049072 576.900085,669.009644 576.545044,660.116943 
	C577.318298,661.208313 577.975830,661.774841 578.172729,662.471558 
	C579.732117,667.988953 583.303467,668.738037 588.094971,666.816711 
	C588.863586,666.508423 589.674988,666.300903 590.475708,666.079773 
	C594.761597,664.896057 600.650879,664.998230 602.889587,662.188721 
	C605.144226,659.359192 603.810730,653.641174 603.977722,649.186035 
	C604.152039,644.536072 609.538635,640.949097 613.746765,642.923340 
	C616.138611,644.045532 618.432617,645.479370 620.545227,647.071899 
	C624.568481,650.104675 628.065552,650.833496 631.480469,646.103943 
	C633.117126,643.837219 635.431824,642.060242 637.439453,640.061462 
	C642.937683,634.587097 642.932495,634.589783 639.281250,627.559753 
	C638.436646,625.933716 637.635071,624.285217 636.822876,622.642456 
	C634.121216,617.178040 637.331238,612.065308 643.507690,612.008301 
	C645.673828,611.988342 647.893555,611.704834 649.996521,612.071228 
	C655.695435,613.064026 658.349060,610.463928 658.995422,605.091797 
	C659.074158,604.437012 659.263306,603.790588 659.449158,603.154297 
	C663.290771,590.002869 663.207825,590.142151 651.698975,583.145630 
	C649.880188,582.039856 648.260742,579.022034 648.287598,576.910400 
	C648.314331,574.801025 650.048767,572.031128 651.876160,570.770630 
	C655.523254,568.254822 659.746277,566.573853 663.776855,564.525024 
	C662.203430,557.867126 660.854797,551.547607 659.125000,545.334229 
	C658.758850,544.018982 657.142151,542.380188 655.854492,542.121826 
	C652.304260,541.409485 648.628235,541.259216 644.992615,541.051331 
	C638.667969,540.689697 635.820801,535.538513 639.018127,530.028748 
	C640.352112,527.729980 641.659729,525.393433 643.233887,523.262146 
	C645.258667,520.520874 645.259338,518.381775 642.577881,515.946106 
	C639.889282,513.503967 637.558655,510.641846 635.236572,507.827362 
	C630.557861,502.156677 629.837036,502.015137 623.312378,505.801941 
	C621.298584,506.970734 619.248962,508.223175 617.049133,508.875580 
	C615.547058,509.321075 613.676636,509.079926 612.108521,508.647064 
	C606.627075,507.133850 606.477661,502.861816 607.154968,498.327057 
	C608.559570,488.923645 608.580505,488.926727 599.472229,486.004303 
	C585.878052,481.642639 585.878052,481.642639 578.146118,493.772156 
	C576.184814,496.848907 570.273743,498.408752 567.993042,496.131714 
	C566.389343,494.530518 565.381287,492.311646 564.196533,490.315552 
	C558.924377,481.433197 558.935974,481.426331 548.642090,483.905762 
	C537.027527,486.703278 537.004700,486.703278 537.000854,498.383362 
	C536.999878,501.409668 537.149109,504.019928 533.647644,505.877411 
	C529.912842,507.858734 527.003540,508.038269 523.768860,505.280212 
	C522.010681,503.781158 519.804749,502.815063 517.998535,501.362732 
	C515.515198,499.365936 513.557312,499.837921 511.485107,501.988312 
	C508.016907,505.587524 504.595612,509.266418 500.818390,512.521729 
	C498.067993,514.892090 498.193176,516.895752 499.848785,519.792358 
	C501.864563,523.319031 503.354553,527.146179 504.127319,530.901611 
M1045.159302,737.324646 
	C1037.604980,720.562866 1024.396240,709.880066 1006.686951,707.380554 
	C989.674988,704.979492 972.221680,705.698608 954.961121,705.080444 
	C953.702637,705.035339 952.434265,705.263367 951.301270,705.354004 
	C951.301270,744.076599 951.301270,782.438599 951.301270,819.991943 
	C968.548950,819.991943 985.591370,821.191345 1002.395691,819.702881 
	C1025.931885,817.618103 1043.438599,801.640076 1048.539062,779.617126 
	C1051.797607,765.547119 1051.149780,751.538513 1045.159302,737.324646 
M818.857239,738.881470 
	C818.722351,739.609436 818.587524,740.337463 818.375916,741.479797 
	C817.510620,740.678406 817.028931,740.250916 816.567627,739.802429 
	C795.591187,719.409546 761.972107,725.149170 748.804077,751.316833 
	C743.905273,761.051941 743.074890,771.367004 744.059570,781.965454 
	C746.481567,808.033142 768.178589,825.449402 793.948730,821.962952 
	C803.704102,820.643188 811.542969,815.595947 818.935303,807.709473 
	C818.935303,812.768555 818.935303,816.791809 818.935303,820.741943 
	C825.570801,820.741943 831.651489,820.741943 837.716431,820.741943 
	C837.716431,790.095032 837.716431,759.712402 837.716431,729.334106 
	C831.326904,729.334106 825.244568,729.334106 818.858276,729.334106 
	C818.858276,732.406860 818.858276,735.215210 818.857239,738.881470 
M1130.568481,731.891357 
	C1099.624146,718.749817 1068.431396,735.446899 1063.423340,767.833374 
	C1060.270874,788.220398 1069.534424,808.027832 1086.453735,817.076660 
	C1109.520996,829.413452 1139.450195,820.711670 1151.358032,798.225220 
	C1162.059448,778.017090 1158.195312,744.975403 1130.568481,731.891357 
M625.833008,706.884094 
	C637.772095,738.577637 649.689636,770.279236 661.668335,801.957825 
	C664.063416,808.291626 666.691589,814.537354 669.212219,820.823608 
	C676.194519,820.856812 683.176758,820.890686 690.159058,820.919128 
	C690.322205,820.919739 690.485596,820.857971 690.996765,820.755737 
	C705.376587,782.457458 719.822083,743.984436 734.437561,705.058716 
	C728.709839,705.058716 723.706665,705.308533 718.743164,704.972656 
	C715.318604,704.740906 713.939087,705.933167 712.805847,709.145996 
	C702.644409,737.955139 692.276062,766.691284 681.954346,795.443787 
	C681.382202,797.037659 680.685669,798.586914 679.719910,800.960754 
	C668.091125,768.356323 656.835571,736.798340 645.515198,705.058716 
	C641.469788,705.058716 637.646362,704.925720 633.837524,705.103210 
	C631.082336,705.231628 628.346252,705.772217 625.833008,706.884094 
M1358.978760,790.500000 
	C1358.978760,770.088684 1358.978760,749.677429 1358.978760,729.409363 
	C1352.220215,729.409363 1346.149902,729.409363 1339.939697,729.409363 
	C1339.939697,745.743286 1339.977417,761.729675 1339.907593,777.715576 
	C1339.893799,780.863831 1339.714600,784.053040 1339.183960,787.150024 
	C1337.185181,798.815308 1329.325317,805.480652 1317.447021,805.817200 
	C1305.401001,806.158508 1297.053711,799.717468 1294.596680,787.912842 
	C1293.992798,785.012024 1293.916382,781.964966 1293.903198,778.983826 
	C1293.837158,763.991943 1293.872437,748.999634 1293.872192,734.007446 
	C1293.872192,732.422668 1293.872192,730.837891 1293.872192,729.300293 
	C1287.191406,729.300293 1281.254150,729.300293 1275.193604,729.300293 
	C1275.193604,749.651733 1274.270752,769.819702 1275.459229,789.862488 
	C1276.593506,808.990173 1290.624756,821.094910 1309.796143,822.226379 
	C1321.290649,822.904724 1331.225220,819.367615 1340.105957,810.534729 
	C1340.105957,814.658081 1340.105957,817.719482 1340.105957,820.708496 
	C1346.594971,820.708496 1352.665771,820.708496 1358.978760,820.708496 
	C1358.978760,810.775757 1358.978760,801.137878 1358.978760,790.500000 
M302.500916,620.303955 
	C325.570953,620.303955 348.640961,620.303955 371.474640,620.303955 
	C371.474640,590.709717 371.474640,561.762451 371.474640,534.077881 
	C342.890533,562.538452 313.890015,591.413696 284.874512,620.303833 
	C290.232330,620.303833 295.867279,620.303833 302.500916,620.303955 
M1180.567505,742.084534 
	C1167.634766,758.426941 1165.586060,782.867676 1175.645142,800.807861 
	C1184.754639,817.054504 1201.310059,824.518005 1222.588257,821.970947 
	C1238.962646,820.010803 1253.232666,807.458069 1256.360352,792.141113 
	C1249.686890,792.141113 1243.042358,792.141113 1236.415405,792.141113 
	C1229.793091,804.024353 1222.755493,807.719849 1209.962158,806.055603 
	C1200.594604,804.836975 1193.200439,797.789307 1190.446899,787.072571 
	C1188.250000,778.521545 1188.262329,769.907715 1190.915771,761.430420 
	C1193.896973,751.905762 1200.022339,745.446106 1210.144897,744.113098 
	C1220.859009,742.702209 1230.009033,745.442749 1235.282227,756.027527 
	C1235.718628,756.903503 1236.832886,758.011047 1237.658569,758.033325 
	C1243.895386,758.201538 1250.138794,758.125122 1256.499512,758.125122 
	C1253.965088,746.937683 1247.456665,738.230713 1238.163330,733.066284 
	C1224.005249,725.198364 1196.423706,723.983765 1180.567505,742.084534 
M882.001465,730.500000 
	C882.001465,719.587952 882.001465,708.675903 882.001465,697.791870 
	C875.386414,697.791870 869.432007,697.791870 863.338013,697.791870 
	C863.338013,738.922791 863.338013,779.893250 863.338013,820.661255 
	C869.748413,820.661255 875.814697,820.661255 882.001465,820.661255 
	C882.001465,790.714111 882.001465,761.107056 882.001465,730.500000 
M906.998535,785.500000 
	C906.998535,797.249634 906.998535,808.999207 906.998535,820.722107 
	C913.621460,820.722107 919.684448,820.722107 925.717407,820.722107 
	C925.717407,790.082825 925.717407,759.723816 925.717407,729.361572 
	C919.372253,729.361572 913.314941,729.361572 906.998535,729.361572 
	C906.998535,747.937683 906.998535,766.218872 906.998535,785.500000 
M905.718018,699.379639 
	C902.993469,707.964111 906.257874,714.992981 913.780457,716.739441 
	C920.672668,718.339600 927.281921,713.909668 928.559998,706.833313 
	C929.530029,701.462585 926.643982,695.980774 921.646362,693.701477 
	C916.091492,691.167969 910.512695,692.954712 905.718018,699.379639 
z"/>
<path fill="#FEFEFE" opacity="1.000000" stroke="none" 
	d="
M554.284241,760.909668 
	C554.211731,775.066650 554.092346,789.223572 554.076416,803.380615 
	C554.043701,832.374939 554.072815,861.369263 554.062439,890.363586 
	C554.059692,897.872192 550.413513,902.036926 542.952759,903.002563 
	C540.981628,903.257690 538.976013,903.342529 536.986206,903.342957 
	C457.501770,903.359375 378.017303,903.361450 298.532867,903.335938 
	C296.216156,903.335144 293.877502,903.163940 291.587219,902.819092 
	C285.803894,901.948364 281.863617,897.400513 281.861938,891.476746 
	C281.839386,812.325562 281.847717,733.174377 281.857208,654.023193 
	C281.857300,653.214783 281.976379,652.406372 282.088898,650.975159 
	C283.980286,650.975159 285.749023,650.975159 287.517792,650.975159 
	C320.677979,650.975159 353.838135,650.976074 386.998322,650.974609 
	C398.477631,650.974121 402.425781,647.086365 402.427338,635.784485 
	C402.431946,602.790955 402.434723,569.797363 402.438202,536.803833 
	C402.438385,534.999146 402.438232,533.194397 402.438232,530.901611 
	C436.555054,530.901611 470.341187,530.901611 504.652283,531.245728 
	C503.168243,537.074402 499.405975,539.032104 493.620728,537.884033 
	C490.588104,537.282166 487.389709,537.515381 484.067078,537.362305 
	C483.228760,540.306091 482.457428,543.005554 481.691345,545.706543 
	C480.469147,550.015930 477.273438,555.099182 478.573273,558.423828 
	C479.936523,561.910645 485.568756,563.780457 489.415863,566.230408 
	C493.871765,569.068115 493.735474,576.437378 489.086578,578.997498 
	C485.176086,581.151001 481.242188,583.262207 477.103333,585.509033 
	C478.922485,593.070068 480.690704,600.419434 482.507324,607.969910 
	C487.514618,607.969910 492.167358,607.915894 496.818207,607.986206 
	C500.896271,608.047852 504.772064,614.862244 502.704376,618.364441 
	C500.272430,622.483582 497.707153,626.524048 495.097900,630.764038 
	C500.411682,636.333801 505.560638,641.730774 511.364044,647.813721 
	C513.414246,645.799011 515.287903,643.957764 517.536194,642.123291 
	C519.634644,641.228943 521.358398,640.327698 523.282349,639.394653 
	C529.994934,639.302673 533.990479,643.115173 533.708069,649.149719 
	C533.529602,652.963989 533.311584,656.776367 533.091614,660.964172 
	C539.258606,662.764893 545.321045,664.434021 551.296875,666.370483 
	C552.410889,666.731445 553.974548,668.223450 553.911377,669.090027 
	C553.823486,670.296082 552.611572,671.698975 551.506409,672.503601 
	C546.824524,675.912842 542.281128,675.795715 537.928955,671.673035 
	C536.755981,670.561951 535.139526,669.918945 533.176697,668.727173 
	C530.223450,672.081726 527.274536,675.431335 524.073303,679.067505 
	C526.116028,684.040833 530.789856,688.041138 527.429443,695.905640 
	C524.011353,703.905151 518.075500,703.859802 511.931274,705.557129 
	C511.753021,707.001953 511.534607,708.293213 511.442719,709.593506 
	C510.761169,719.237854 510.788116,719.175415 519.836731,721.918945 
	C521.381836,722.387451 523.389404,723.323425 523.989319,724.603149 
	C529.107788,735.522034 529.022217,735.558899 522.853760,745.808411 
	C522.607056,746.218323 522.523682,746.726501 522.265137,747.476196 
	C525.494995,750.411743 528.780884,753.398193 532.339844,756.632812 
	C532.969482,756.057922 534.024536,755.094727 535.403381,754.024231 
	C537.646423,752.965515 539.565552,752.014099 541.884399,751.039062 
	C546.117065,752.684753 549.950012,754.354004 553.897278,756.072998 
	C554.027405,757.699524 554.155823,759.304565 554.284241,760.909668 
M440.857422,791.365723 
	C460.730438,766.129761 481.798279,742.034729 507.144257,722.516174 
	C500.744141,712.695801 494.596466,703.262817 488.223206,693.483643 
	C457.462006,720.590515 429.329651,750.253052 407.265717,784.798950 
	C394.920044,772.820984 382.808929,761.070618 370.564575,749.190979 
	C363.162506,758.339539 356.514130,766.556641 350.480255,774.014221 
	C370.489807,793.920227 390.357574,813.685242 409.924042,833.150452 
	C419.658173,819.978210 430.028870,805.944641 440.857422,791.365723 
z"/>
<path fill="#FCFCFD" opacity="1.000000" stroke="none" 
	d="
M1045.330811,737.666077 
	C1051.149780,751.538513 1051.797607,765.547119 1048.539062,779.617126 
	C1043.438599,801.640076 1025.931885,817.618103 1002.395691,819.702881 
	C985.591370,821.191345 968.548950,819.991943 951.301270,819.991943 
	C951.301270,782.438599 951.301270,744.076599 951.301270,705.354004 
	C952.434265,705.263367 953.702637,705.035339 954.961121,705.080444 
	C972.221680,705.698608 989.674988,704.979492 1006.686951,707.380554 
	C1024.396240,709.880066 1037.604980,720.562866 1045.330811,737.666077 
M970.005127,778.500000 
	C970.005127,787.415405 970.005127,796.330811 970.005127,805.022827 
	C979.140503,805.022827 987.646484,805.464478 996.090454,804.928406 
	C1012.274414,803.900879 1024.656006,794.260254 1028.544556,779.209717 
	C1030.221191,772.720337 1030.986328,765.681946 1030.516968,759.008972 
	C1028.959717,736.874268 1017.367004,723.721497 997.167175,721.373596 
	C988.360962,720.350037 979.336670,721.201599 970.005127,721.201599 
	C970.005127,739.979675 970.005127,758.739868 970.005127,778.500000 
z"/>
<path fill="#FCFCFD" opacity="1.000000" stroke="none" 
	d="
M818.857788,738.452515 
	C818.858276,735.215210 818.858276,732.406860 818.858276,729.334106 
	C825.244568,729.334106 831.326904,729.334106 837.716431,729.334106 
	C837.716431,759.712402 837.716431,790.095032 837.716431,820.741943 
	C831.651489,820.741943 825.570801,820.741943 818.935303,820.741943 
	C818.935303,816.791809 818.935303,812.768555 818.935303,807.709473 
	C811.542969,815.595947 803.704102,820.643188 793.948730,821.962952 
	C768.178589,825.449402 746.481567,808.033142 744.059570,781.965454 
	C743.074890,771.367004 743.905273,761.051941 748.804077,751.316833 
	C761.972107,725.149170 795.591187,719.409546 816.567627,739.802429 
	C817.028931,740.250916 817.510620,740.678406 818.375916,741.479797 
	C818.587524,740.337463 818.722351,739.609436 818.857788,738.452515 
M816.871460,762.907654 
	C812.096619,751.125671 803.549133,744.404114 790.668823,744.238220 
	C779.472290,744.094055 769.878540,750.964355 765.618530,761.572205 
	C762.806702,768.573792 762.599670,775.828369 764.099182,783.122742 
	C766.800476,796.262451 777.974487,805.787781 790.698669,805.967407 
	C803.400391,806.146729 814.952148,797.489380 817.441833,784.288147 
	C818.688171,777.679565 817.265259,770.567688 816.871460,762.907654 
z"/>
<path fill="#0E0906" opacity="1.000000" stroke="none" 
	d="
M535.079529,754.131531 
	C534.024536,755.094727 532.969482,756.057922 532.339844,756.632812 
	C528.780884,753.398193 525.494995,750.411743 522.265137,747.476196 
	C522.523682,746.726501 522.607056,746.218323 522.853760,745.808411 
	C529.022217,735.558899 529.107788,735.522034 523.989319,724.603149 
	C523.389404,723.323425 521.381836,722.387451 519.836731,721.918945 
	C510.788116,719.175415 510.761169,719.237854 511.442719,709.593506 
	C511.534607,708.293213 511.753021,707.001953 511.931274,705.557129 
	C518.075500,703.859802 524.011353,703.905151 527.429443,695.905640 
	C530.789856,688.041138 526.116028,684.040833 524.073303,679.067505 
	C527.274536,675.431335 530.223450,672.081726 533.176697,668.727173 
	C535.139526,669.918945 536.755981,670.561951 537.928955,671.673035 
	C542.281128,675.795715 546.824524,675.912842 551.506409,672.503601 
	C552.611572,671.698975 553.823486,670.296082 553.911377,669.090027 
	C553.974548,668.223450 552.410889,666.731445 551.296875,666.370483 
	C545.321045,664.434021 539.258606,662.764893 533.091614,660.964172 
	C533.311584,656.776367 533.529602,652.963989 533.708069,649.149719 
	C533.990479,643.115173 529.994934,639.302673 523.267029,639.065613 
	C523.692322,638.314636 524.327881,637.853333 524.974670,637.408325 
	C527.419495,635.725769 529.518127,635.037842 532.565063,637.019958 
	C535.538208,638.954163 536.514404,640.899963 536.227295,644.264954 
	C535.905273,648.039917 536.153320,651.863525 536.153320,655.863525 
	C542.984497,657.873596 549.636475,659.830933 556.529236,661.859192 
	C558.471008,658.589478 560.259460,655.610229 562.015137,652.611755 
	C563.512207,650.055054 564.632629,647.783569 568.638306,647.908447 
	C572.754578,648.036621 574.560913,649.817566 576.017517,653.095581 
	C577.096252,655.523254 578.290405,657.967346 579.871643,660.075134 
	C580.643005,661.103394 582.557678,662.103210 583.711243,661.876465 
	C589.697754,660.699951 595.605652,659.123718 601.293091,657.746704 
	C601.552307,656.979492 601.743286,656.670654 601.748962,656.358337 
	C601.816040,652.695068 601.832520,649.030762 601.907288,645.367737 
	C602.016968,640.001526 608.000671,636.648926 612.619995,639.383606 
	C616.181335,641.492065 619.696899,643.677673 623.357544,645.904846 
	C625.753540,643.658020 627.959106,641.641541 630.107605,639.565918 
	C638.632202,631.330627 638.740540,631.259094 632.820557,620.745239 
	C631.306274,618.055847 631.593384,616.272278 632.883850,613.574036 
	C634.816040,609.534241 637.869507,609.970093 641.194336,610.029541 
	C651.437439,610.212708 651.438049,610.183044 654.310547,600.465576 
	C657.506348,589.654236 657.556519,589.567749 647.757568,583.881042 
	C644.797791,582.163391 643.120667,580.497559 643.195129,576.600708 
	C643.268982,572.739563 645.690552,571.974182 648.115906,570.669189 
	C657.862793,565.424805 657.862061,565.423462 655.222229,554.777527 
	C652.589600,544.160706 652.589600,544.160767 641.564392,543.988098 
	C633.807251,543.866638 631.222046,539.086792 635.261353,532.334473 
	C640.810974,523.057495 640.810974,523.057495 633.555420,515.329163 
	C625.960449,507.239105 625.867371,507.079987 616.008850,512.846436 
	C612.804199,514.720825 610.568909,514.444946 607.495667,512.646912 
	C603.678345,510.413452 605.066284,507.159424 605.039490,504.255646 
	C604.950256,494.577545 605.046204,494.576721 595.748352,491.800659 
	C584.683594,488.497101 584.683594,488.497009 578.705322,498.140778 
	C574.941162,504.212921 568.998047,504.020325 565.538025,497.714111 
	C560.072571,487.752869 560.072571,487.752869 548.832153,490.511261 
	C539.254578,492.861664 539.096252,492.863312 539.200562,502.962616 
	C539.241699,506.942352 538.590881,509.581238 534.552246,511.657715 
	C530.533752,513.723877 528.604431,510.957397 526.163513,509.506287 
	C517.890869,504.588165 517.951538,504.486023 511.232574,510.864502 
	C502.521240,519.134399 502.433319,519.185425 508.378876,529.442322 
	C509.884277,532.039368 509.838837,533.867554 508.504303,536.655334 
	C506.471405,540.901855 503.351501,540.467407 499.815277,540.284851 
	C489.718506,539.763733 489.715790,539.816650 486.997833,549.408508 
	C483.882965,560.401184 483.844299,560.467163 493.619080,566.196960 
	C496.390472,567.821533 497.976654,569.351990 497.879395,573.100708 
	C497.780304,576.919434 495.994080,578.382935 493.109924,579.701904 
	C490.842896,580.738647 488.401733,581.678162 486.561157,583.267029 
	C485.269806,584.381775 483.949066,586.679260 484.215240,588.166992 
	C485.261505,594.014221 486.931274,599.749817 488.476746,605.957642 
	C492.058289,605.957642 495.527679,606.001892 498.995392,605.944641 
	C502.168732,605.892212 504.705719,605.884827 506.664490,609.599365 
	C508.534027,613.144409 507.844391,615.375244 505.854645,618.083496 
	C504.575775,619.824158 503.648010,621.829895 502.316132,623.522705 
	C500.312317,626.069641 500.438263,628.008972 502.905212,630.317078 
	C506.669189,633.838806 510.002899,637.817444 513.705750,641.409973 
	C514.416870,642.099915 515.987488,641.903870 517.161621,642.116516 
	C515.287903,643.957764 513.414246,645.799011 511.364044,647.813721 
	C505.560638,641.730774 500.411682,636.333801 495.097900,630.764038 
	C497.707153,626.524048 500.272430,622.483582 502.704376,618.364441 
	C504.772064,614.862244 500.896271,608.047852 496.818207,607.986206 
	C492.167358,607.915894 487.514618,607.969910 482.507324,607.969910 
	C480.690704,600.419434 478.922485,593.070068 477.103333,585.509033 
	C481.242188,583.262207 485.176086,581.151001 489.086578,578.997498 
	C493.735474,576.437378 493.871765,569.068115 489.415863,566.230408 
	C485.568756,563.780457 479.936523,561.910645 478.573273,558.423828 
	C477.273438,555.099182 480.469147,550.015930 481.691345,545.706543 
	C482.457428,543.005554 483.228760,540.306091 484.067078,537.362305 
	C487.389709,537.515381 490.588104,537.282166 493.620728,537.884033 
	C499.405975,539.032104 503.168243,537.074402 505.124603,531.216614 
	C503.354553,527.146179 501.864563,523.319031 499.848785,519.792358 
	C498.193176,516.895752 498.067993,514.892090 500.818390,512.521729 
	C504.595612,509.266418 508.016907,505.587524 511.485107,501.988312 
	C513.557312,499.837921 515.515198,499.365936 517.998535,501.362732 
	C519.804749,502.815063 522.010681,503.781158 523.768860,505.280212 
	C527.003540,508.038269 529.912842,507.858734 533.647644,505.877411 
	C537.149109,504.019928 536.999878,501.409668 537.000854,498.383362 
	C537.004700,486.703278 537.027527,486.703278 548.642090,483.905762 
	C558.935974,481.426331 558.924377,481.433197 564.196533,490.315552 
	C565.381287,492.311646 566.389343,494.530518 567.993042,496.131714 
	C570.273743,498.408752 576.184814,496.848907 578.146118,493.772156 
	C585.878052,481.642639 585.878052,481.642639 599.472229,486.004303 
	C608.580505,488.926727 608.559570,488.923645 607.154968,498.327057 
	C606.477661,502.861816 606.627075,507.133850 612.108521,508.647064 
	C613.676636,509.079926 615.547058,509.321075 617.049133,508.875580 
	C619.248962,508.223175 621.298584,506.970734 623.312378,505.801941 
	C629.837036,502.015137 630.557861,502.156677 635.236572,507.827362 
	C637.558655,510.641846 639.889282,513.503967 642.577881,515.946106 
	C645.259338,518.381775 645.258667,520.520874 643.233887,523.262146 
	C641.659729,525.393433 640.352112,527.729980 639.018127,530.028748 
	C635.820801,535.538513 638.667969,540.689697 644.992615,541.051331 
	C648.628235,541.259216 652.304260,541.409485 655.854492,542.121826 
	C657.142151,542.380188 658.758850,544.018982 659.125000,545.334229 
	C660.854797,551.547607 662.203430,557.867126 663.776855,564.525024 
	C659.746277,566.573853 655.523254,568.254822 651.876160,570.770630 
	C650.048767,572.031128 648.314331,574.801025 648.287598,576.910400 
	C648.260742,579.022034 649.880188,582.039856 651.698975,583.145630 
	C663.207825,590.142151 663.290771,590.002869 659.449158,603.154297 
	C659.263306,603.790588 659.074158,604.437012 658.995422,605.091797 
	C658.349060,610.463928 655.695435,613.064026 649.996521,612.071228 
	C647.893555,611.704834 645.673828,611.988342 643.507690,612.008301 
	C637.331238,612.065308 634.121216,617.178040 636.822876,622.642456 
	C637.635071,624.285217 638.436646,625.933716 639.281250,627.559753 
	C642.932495,634.589783 642.937683,634.587097 637.439453,640.061462 
	C635.431824,642.060242 633.117126,643.837219 631.480469,646.103943 
	C628.065552,650.833496 624.568481,650.104675 620.545227,647.071899 
	C618.432617,645.479370 616.138611,644.045532 613.746765,642.923340 
	C609.538635,640.949097 604.152039,644.536072 603.977722,649.186035 
	C603.810730,653.641174 605.144226,659.359192 602.889587,662.188721 
	C600.650879,664.998230 594.761597,664.896057 590.475708,666.079773 
	C589.674988,666.300903 588.863586,666.508423 588.094971,666.816711 
	C583.303467,668.738037 579.732117,667.988953 578.172729,662.471558 
	C577.975830,661.774841 577.318298,661.208313 576.545044,660.116943 
	C576.900085,669.009644 583.400024,676.049072 590.934326,675.822510 
	C592.879333,675.764038 594.837830,674.219543 596.683472,673.170166 
	C601.536682,670.410583 610.751526,674.187378 611.460632,679.663086 
	C611.693176,681.458618 610.104248,683.644104 608.996033,685.433044 
	C603.812866,693.801025 607.336426,704.009888 616.911743,706.273254 
	C622.191406,707.521362 623.420654,709.976685 623.084290,714.901611 
	C622.762817,719.607788 621.722229,722.887573 616.296143,723.474426 
	C613.919556,723.731323 610.648376,724.360657 609.549133,726.002869 
	C607.195801,729.518616 605.105591,733.702759 604.638000,737.810181 
	C604.341675,740.413025 606.986816,743.480103 608.636230,746.138306 
	C610.231750,748.709717 609.553223,750.465454 607.355713,752.046631 
	C606.816467,752.434509 606.099731,752.675842 605.726440,753.178894 
	C601.665588,758.650818 597.225098,758.399597 592.435181,754.190063 
	C590.178406,752.206848 587.861206,751.948486 585.286987,753.800903 
	C584.245178,754.550659 582.870667,754.993958 581.584839,755.220459 
	C576.976013,756.032288 574.725403,758.964905 574.121277,763.335449 
	C573.458984,768.126404 571.925659,771.441711 566.118164,769.118713 
	C565.251282,768.771973 564.114807,768.899536 563.142029,769.053650 
	C559.731628,769.593750 557.912903,768.332642 557.325623,764.810303 
	C557.096558,763.436462 555.826904,762.236084 554.657715,760.933228 
	C554.155823,759.304565 554.027405,757.699524 553.897278,756.072998 
	C549.950012,754.354004 546.117065,752.684753 542.025818,750.663513 
	C543.203796,747.853699 545.056213,747.463135 547.489014,748.970215 
	C548.894348,749.840881 550.400024,750.774536 551.979431,751.096008 
	C556.288269,751.972900 558.022278,754.790222 558.277771,758.795532 
	C558.598633,763.826416 561.247437,765.050293 566.079407,765.142273 
	C570.937744,765.234741 573.622803,764.006897 573.958008,759.034973 
	C574.248169,754.731689 576.652344,752.586792 580.764709,751.936279 
	C584.065002,751.414246 586.554626,747.801086 590.797913,750.729797 
	C597.815735,755.573547 598.062561,755.228821 604.092957,749.277832 
	C604.909973,748.471497 605.644043,747.581116 606.463440,746.678040 
	C604.695190,741.357727 600.229248,737.575134 603.414978,730.282349 
	C606.635803,722.909119 612.582397,723.533081 617.739319,721.306458 
	C617.818420,719.878479 617.914185,718.729248 617.940674,717.578491 
	C618.129150,709.409241 618.107117,709.462524 610.312866,706.915833 
	C608.839233,706.434204 606.745361,705.632324 606.336487,704.481323 
	C604.162659,698.362244 600.129517,692.040283 606.694580,686.004150 
	C607.347656,685.403687 607.570312,684.335022 608.003540,683.461853 
	C606.331970,681.691833 604.648254,680.264221 603.407959,678.521057 
	C600.907715,675.006836 598.269287,674.571655 594.721558,677.102600 
	C592.908203,678.396240 589.848694,680.328125 588.629639,679.655701 
	C583.452393,676.800476 575.305603,676.933289 575.503113,667.869263 
	C575.617432,662.621399 571.552673,663.380310 568.114197,663.137024 
	C564.346252,662.870422 561.374695,662.929138 560.628845,667.851624 
	C560.088196,671.419617 559.032532,674.369568 554.479309,676.286804 
	C548.080750,678.981079 543.278503,678.454102 538.347351,674.166382 
	C537.872559,673.753540 537.174683,673.597412 536.016663,673.060913 
	C533.442810,675.909180 530.784851,678.850403 528.023193,681.906372 
	C529.636658,685.124512 532.627380,688.494812 532.687256,691.916321 
	C532.750916,695.561035 530.482605,699.543579 528.347534,702.798157 
	C527.354980,704.311218 524.293335,705.019043 522.128845,705.108643 
	C515.397034,705.387512 516.915710,710.317139 516.197205,714.355713 
	C515.324768,719.259766 518.658569,719.583435 521.817749,720.648865 
	C524.010803,721.388428 527.002563,722.137695 527.931091,723.822937 
	C531.335327,730.001526 533.739868,736.551270 527.379517,742.638306 
	C526.940063,743.058899 526.830994,743.824585 526.478638,744.636169 
	C529.330627,747.784790 532.205078,750.958130 535.079529,754.131531 
M572.800476,657.987061 
	C576.221436,657.152954 574.280823,654.583191 573.308899,654.252747 
	C570.794800,653.397766 567.906494,652.916931 565.315308,653.296143 
	C563.834412,653.512817 562.642395,655.703430 561.320312,657.005371 
	C561.588562,657.338501 561.856750,657.671692 562.124939,658.004883 
	C565.402283,658.004883 568.679626,658.004883 572.800476,657.987061 
M555.573059,758.521301 
	C555.573059,758.521301 555.450928,758.595459 555.573059,758.521301 
z"/>
<path fill="#FBFBFC" opacity="1.000000" stroke="none" 
	d="
M1130.924316,732.016113 
	C1158.195312,744.975403 1162.059448,778.017090 1151.358032,798.225220 
	C1139.450195,820.711670 1109.520996,829.413452 1086.453735,817.076660 
	C1069.534424,808.027832 1060.270874,788.220398 1063.423340,767.833374 
	C1068.431396,735.446899 1099.624146,718.749817 1130.924316,732.016113 
M1122.798950,747.511597 
	C1104.986084,739.366699 1087.320557,747.132935 1083.732910,765.619080 
	C1082.354980,772.719116 1082.774536,780.695862 1084.497314,787.755249 
	C1087.678345,800.790466 1100.804688,808.035156 1113.972900,805.469788 
	C1126.138306,803.099670 1133.920654,795.153625 1136.496216,782.472229 
	C1139.427734,768.038086 1134.603149,755.250122 1122.798950,747.511597 
z"/>
<path fill="#FBFBFC" opacity="1.000000" stroke="none" 
	d="
M625.717346,706.506531 
	C628.346252,705.772217 631.082336,705.231628 633.837524,705.103210 
	C637.646362,704.925720 641.469788,705.058716 645.515198,705.058716 
	C656.835571,736.798340 668.091125,768.356323 679.719910,800.960754 
	C680.685669,798.586914 681.382202,797.037659 681.954346,795.443787 
	C692.276062,766.691284 702.644409,737.955139 712.805847,709.145996 
	C713.939087,705.933167 715.318604,704.740906 718.743164,704.972656 
	C723.706665,705.308533 728.709839,705.058716 734.437561,705.058716 
	C719.822083,743.984436 705.376587,782.457458 690.996765,820.755737 
	C690.485596,820.857971 690.322205,820.919739 690.159058,820.919128 
	C683.176758,820.890686 676.194519,820.856812 669.212219,820.823608 
	C666.691589,814.537354 664.063416,808.291626 661.668335,801.957825 
	C649.689636,770.279236 637.772095,738.577637 625.717346,706.506531 
z"/>
<path fill="#FCFCFD" opacity="1.000000" stroke="none" 
	d="
M1358.978760,791.000000 
	C1358.978760,801.137878 1358.978760,810.775757 1358.978760,820.708496 
	C1352.665771,820.708496 1346.594971,820.708496 1340.105957,820.708496 
	C1340.105957,817.719482 1340.105957,814.658081 1340.105957,810.534729 
	C1331.225220,819.367615 1321.290649,822.904724 1309.796143,822.226379 
	C1290.624756,821.094910 1276.593506,808.990173 1275.459229,789.862488 
	C1274.270752,769.819702 1275.193604,749.651733 1275.193604,729.300293 
	C1281.254150,729.300293 1287.191406,729.300293 1293.872192,729.300293 
	C1293.872192,730.837891 1293.872192,732.422668 1293.872192,734.007446 
	C1293.872437,748.999634 1293.837158,763.991943 1293.903198,778.983826 
	C1293.916382,781.964966 1293.992798,785.012024 1294.596680,787.912842 
	C1297.053711,799.717468 1305.401001,806.158508 1317.447021,805.817200 
	C1329.325317,805.480652 1337.185181,798.815308 1339.183960,787.150024 
	C1339.714600,784.053040 1339.893799,780.863831 1339.907593,777.715576 
	C1339.977417,761.729675 1339.939697,745.743286 1339.939697,729.409363 
	C1346.149902,729.409363 1352.220215,729.409363 1358.978760,729.409363 
	C1358.978760,749.677429 1358.978760,770.088684 1358.978760,791.000000 
z"/>
<path fill="#FCFCFD" opacity="1.000000" stroke="none" 
	d="
M302.001556,620.303894 
	C295.867279,620.303833 290.232330,620.303833 284.874512,620.303833 
	C313.890015,591.413696 342.890533,562.538452 371.474640,534.077881 
	C371.474640,561.762451 371.474640,590.709717 371.474640,620.303955 
	C348.640961,620.303955 325.570953,620.303955 302.001556,620.303894 
z"/>
<path fill="#FBFBFC" opacity="1.000000" stroke="none" 
	d="
M1180.803467,741.817139 
	C1196.423706,723.983765 1224.005249,725.198364 1238.163330,733.066284 
	C1247.456665,738.230713 1253.965088,746.937683 1256.499512,758.125122 
	C1250.138794,758.125122 1243.895386,758.201538 1237.658569,758.033325 
	C1236.832886,758.011047 1235.718628,756.903503 1235.282227,756.027527 
	C1230.009033,745.442749 1220.859009,742.702209 1210.144897,744.113098 
	C1200.022339,745.446106 1193.896973,751.905762 1190.915771,761.430420 
	C1188.262329,769.907715 1188.250000,778.521545 1190.446899,787.072571 
	C1193.200439,797.789307 1200.594604,804.836975 1209.962158,806.055603 
	C1222.755493,807.719849 1229.793091,804.024353 1236.415405,792.141113 
	C1243.042358,792.141113 1249.686890,792.141113 1256.360352,792.141113 
	C1253.232666,807.458069 1238.962646,820.010803 1222.588257,821.970947 
	C1201.310059,824.518005 1184.754639,817.054504 1175.645142,800.807861 
	C1165.586060,782.867676 1167.634766,758.426941 1180.803467,741.817139 
z"/>
<path fill="#FEFEFE" opacity="1.000000" stroke="none" 
	d="
M882.001465,731.000000 
	C882.001465,761.107056 882.001465,790.714111 882.001465,820.661255 
	C875.814697,820.661255 869.748413,820.661255 863.338013,820.661255 
	C863.338013,779.893250 863.338013,738.922791 863.338013,697.791870 
	C869.432007,697.791870 875.386414,697.791870 882.001465,697.791870 
	C882.001465,708.675903 882.001465,719.587952 882.001465,731.000000 
z"/>
<path fill="#FEFEFE" opacity="1.000000" stroke="none" 
	d="
M906.998535,785.000000 
	C906.998535,766.218872 906.998535,747.937683 906.998535,729.361572 
	C913.314941,729.361572 919.372253,729.361572 925.717407,729.361572 
	C925.717407,759.723816 925.717407,790.082825 925.717407,820.722107 
	C919.684448,820.722107 913.621460,820.722107 906.998535,820.722107 
	C906.998535,808.999207 906.998535,797.249634 906.998535,785.000000 
z"/>
<path fill="#FBFBFC" opacity="1.000000" stroke="none" 
	d="
M905.876770,699.040405 
	C910.512695,692.954712 916.091492,691.167969 921.646362,693.701477 
	C926.643982,695.980774 929.530029,701.462585 928.559998,706.833313 
	C927.281921,713.909668 920.672668,718.339600 913.780457,716.739441 
	C906.257874,714.992981 902.993469,707.964111 905.876770,699.040405 
z"/>
<path fill="#FD7E00" opacity="1.000000" stroke="none" 
	d="
M517.536255,642.123352 
	C515.987488,641.903870 514.416870,642.099915 513.705750,641.409973 
	C510.002899,637.817444 506.669189,633.838806 502.905212,630.317078 
	C500.438263,628.008972 500.312317,626.069641 502.316132,623.522705 
	C503.648010,621.829895 504.575775,619.824158 505.854645,618.083496 
	C507.844391,615.375244 508.534027,613.144409 506.664490,609.599365 
	C504.705719,605.884827 502.168732,605.892212 498.995392,605.944641 
	C495.527679,606.001892 492.058289,605.957642 488.476746,605.957642 
	C486.931274,599.749817 485.261505,594.014221 484.215240,588.166992 
	C483.949066,586.679260 485.269806,584.381775 486.561157,583.267029 
	C488.401733,581.678162 490.842896,580.738647 493.109924,579.701904 
	C495.994080,578.382935 497.780304,576.919434 497.879395,573.100708 
	C497.976654,569.351990 496.390472,567.821533 493.619080,566.196960 
	C483.844299,560.467163 483.882965,560.401184 486.997833,549.408508 
	C489.715790,539.816650 489.718506,539.763733 499.815277,540.284851 
	C503.351501,540.467407 506.471405,540.901855 508.504303,536.655334 
	C509.838837,533.867554 509.884277,532.039368 508.378876,529.442322 
	C502.433319,519.185425 502.521240,519.134399 511.232574,510.864502 
	C517.951538,504.486023 517.890869,504.588165 526.163513,509.506287 
	C528.604431,510.957397 530.533752,513.723877 534.552246,511.657715 
	C538.590881,509.581238 539.241699,506.942352 539.200562,502.962616 
	C539.096252,492.863312 539.254578,492.861664 548.832153,490.511261 
	C560.072571,487.752869 560.072571,487.752869 565.538025,497.714111 
	C568.998047,504.020325 574.941162,504.212921 578.705322,498.140778 
	C584.683594,488.497009 584.683594,488.497101 595.748352,491.800659 
	C605.046204,494.576721 604.950256,494.577545 605.039490,504.255646 
	C605.066284,507.159424 603.678345,510.413452 607.495667,512.646912 
	C610.568909,514.444946 612.804199,514.720825 616.008850,512.846436 
	C625.867371,507.079987 625.960449,507.239105 633.555420,515.329163 
	C640.810974,523.057495 640.810974,523.057495 635.261353,532.334473 
	C631.222046,539.086792 633.807251,543.866638 641.564392,543.988098 
	C652.589600,544.160767 652.589600,544.160706 655.222229,554.777527 
	C657.862061,565.423462 657.862793,565.424805 648.115906,570.669189 
	C645.690552,571.974182 643.268982,572.739563 643.195129,576.600708 
	C643.120667,580.497559 644.797791,582.163391 647.757568,583.881042 
	C657.556519,589.567749 657.506348,589.654236 654.310547,600.465576 
	C651.438049,610.183044 651.437439,610.212708 641.194336,610.029541 
	C637.869507,609.970093 634.816040,609.534241 632.883850,613.574036 
	C631.593384,616.272278 631.306274,618.055847 632.820557,620.745239 
	C638.740540,631.259094 638.632202,631.330627 630.107605,639.565918 
	C627.959106,641.641541 625.753540,643.658020 623.357544,645.904846 
	C619.696899,643.677673 616.181335,641.492065 612.619995,639.383606 
	C608.000671,636.648926 602.016968,640.001526 601.907288,645.367737 
	C601.832520,649.030762 601.816040,652.695068 601.748962,656.358337 
	C601.743286,656.670654 601.552307,656.979492 601.293091,657.746704 
	C595.605652,659.123718 589.697754,660.699951 583.711243,661.876465 
	C582.557678,662.103210 580.643005,661.103394 579.871643,660.075134 
	C578.290405,657.967346 577.096252,655.523254 576.017517,653.095581 
	C574.560913,649.817566 572.754578,648.036621 568.638306,647.908447 
	C564.632629,647.783569 563.512207,650.055054 562.015137,652.611755 
	C560.259460,655.610229 558.471008,658.589478 556.529236,661.859192 
	C549.636475,659.830933 542.984497,657.873596 536.153320,655.863525 
	C536.153320,651.863525 535.905273,648.039917 536.227295,644.264954 
	C536.514404,640.899963 535.538208,638.954163 532.565063,637.019958 
	C529.518127,635.037842 527.419495,635.725769 524.974670,637.408325 
	C524.327881,637.853333 523.692322,638.314636 523.066895,639.097534 
	C521.358398,640.327698 519.634644,641.228943 517.536255,642.123352 
M549.637512,549.083618 
	C535.779968,561.382874 532.582947,579.220581 541.593384,593.965454 
	C550.315369,608.238220 568.457703,614.348389 583.841553,607.883972 
	C596.206665,602.687988 603.565613,593.217102 604.866150,579.864075 
	C606.284790,565.298584 600.513367,553.655823 587.738708,546.430481 
	C575.026428,539.240479 562.268066,540.192871 549.637512,549.083618 
z"/>
<path fill="#10BE04" opacity="1.000000" stroke="none" 
	d="
M440.628479,791.638367 
	C430.028870,805.944641 419.658173,819.978210 409.924042,833.150452 
	C390.357574,813.685242 370.489807,793.920227 350.480255,774.014221 
	C356.514130,766.556641 363.162506,758.339539 370.564575,749.190979 
	C382.808929,761.070618 394.920044,772.820984 407.265717,784.798950 
	C429.329651,750.253052 457.462006,720.590515 488.223206,693.483643 
	C494.596466,703.262817 500.744141,712.695801 507.144257,722.516174 
	C481.798279,742.034729 460.730438,766.129761 440.628479,791.638367 
z"/>
<path fill="#FD7E00" opacity="1.000000" stroke="none" 
	d="
M535.403381,754.024231 
	C532.205078,750.958130 529.330627,747.784790 526.478638,744.636169 
	C526.830994,743.824585 526.940063,743.058899 527.379517,742.638306 
	C533.739868,736.551270 531.335327,730.001526 527.931091,723.822937 
	C527.002563,722.137695 524.010803,721.388428 521.817749,720.648865 
	C518.658569,719.583435 515.324768,719.259766 516.197205,714.355713 
	C516.915710,710.317139 515.397034,705.387512 522.128845,705.108643 
	C524.293335,705.019043 527.354980,704.311218 528.347534,702.798157 
	C530.482605,699.543579 532.750916,695.561035 532.687256,691.916321 
	C532.627380,688.494812 529.636658,685.124512 528.023193,681.906372 
	C530.784851,678.850403 533.442810,675.909180 536.016663,673.060913 
	C537.174683,673.597412 537.872559,673.753540 538.347351,674.166382 
	C543.278503,678.454102 548.080750,678.981079 554.479309,676.286804 
	C559.032532,674.369568 560.088196,671.419617 560.628845,667.851624 
	C561.374695,662.929138 564.346252,662.870422 568.114197,663.137024 
	C571.552673,663.380310 575.617432,662.621399 575.503113,667.869263 
	C575.305603,676.933289 583.452393,676.800476 588.629639,679.655701 
	C589.848694,680.328125 592.908203,678.396240 594.721558,677.102600 
	C598.269287,674.571655 600.907715,675.006836 603.407959,678.521057 
	C604.648254,680.264221 606.331970,681.691833 608.003540,683.461853 
	C607.570312,684.335022 607.347656,685.403687 606.694580,686.004150 
	C600.129517,692.040283 604.162659,698.362244 606.336487,704.481323 
	C606.745361,705.632324 608.839233,706.434204 610.312866,706.915833 
	C618.107117,709.462524 618.129150,709.409241 617.940674,717.578491 
	C617.914185,718.729248 617.818420,719.878479 617.739319,721.306458 
	C612.582397,723.533081 606.635803,722.909119 603.414978,730.282349 
	C600.229248,737.575134 604.695190,741.357727 606.463440,746.678040 
	C605.644043,747.581116 604.909973,748.471497 604.092957,749.277832 
	C598.062561,755.228821 597.815735,755.573547 590.797913,750.729797 
	C586.554626,747.801086 584.065002,751.414246 580.764709,751.936279 
	C576.652344,752.586792 574.248169,754.731689 573.958008,759.034973 
	C573.622803,764.006897 570.937744,765.234741 566.079407,765.142273 
	C561.247437,765.050293 558.598633,763.826416 558.277771,758.795532 
	C558.022278,754.790222 556.288269,751.972900 551.979431,751.096008 
	C550.400024,750.774536 548.894348,749.840881 547.489014,748.970215 
	C545.056213,747.463135 543.203796,747.853699 541.626099,750.687134 
	C539.565552,752.014099 537.646423,752.965515 535.403381,754.024231 
M562.328064,733.359192 
	C571.027466,734.682434 578.718750,731.333862 582.910950,724.398010 
	C587.161743,717.365234 586.757263,709.040161 581.842224,702.400391 
	C576.910767,695.738464 568.690613,692.904846 560.613159,695.082458 
	C552.683167,697.220276 546.504272,705.109375 546.200317,713.484497 
	C545.876831,722.396545 551.942322,730.186035 562.328064,733.359192 
z"/>
<path fill="#150934" opacity="1.000000" stroke="none" 
	d="
M970.005127,778.000000 
	C970.005127,758.739868 970.005127,739.979675 970.005127,721.201599 
	C979.336670,721.201599 988.360962,720.350037 997.167175,721.373596 
	C1017.367004,723.721497 1028.959717,736.874268 1030.516968,759.008972 
	C1030.986328,765.681946 1030.221191,772.720337 1028.544556,779.209717 
	C1024.656006,794.260254 1012.274414,803.900879 996.090454,804.928406 
	C987.646484,805.464478 979.140503,805.022827 970.005127,805.022827 
	C970.005127,796.330811 970.005127,787.415405 970.005127,778.000000 
z"/>
<path fill="#170B36" opacity="1.000000" stroke="none" 
	d="
M816.960571,763.295532 
	C817.265259,770.567688 818.688171,777.679565 817.441833,784.288147 
	C814.952148,797.489380 803.400391,806.146729 790.698669,805.967407 
	C777.974487,805.787781 766.800476,796.262451 764.099182,783.122742 
	C762.599670,775.828369 762.806702,768.573792 765.618530,761.572205 
	C769.878540,750.964355 779.472290,744.094055 790.668823,744.238220 
	C803.549133,744.404114 812.096619,751.125671 816.960571,763.295532 
z"/>
<path fill="#150934" opacity="1.000000" stroke="none" 
	d="
M572.378723,657.995972 
	C568.679626,658.004883 565.402283,658.004883 562.124939,658.004883 
	C561.856750,657.671692 561.588562,657.338501 561.320312,657.005371 
	C562.642395,655.703430 563.834412,653.512817 565.315308,653.296143 
	C567.906494,652.916931 570.794800,653.397766 573.308899,654.252747 
	C574.280823,654.583191 576.221436,657.152954 572.378723,657.995972 
z"/>
<path fill="#150934" opacity="1.000000" stroke="none" 
	d="
M555.511963,758.558350 
	C555.450928,758.595459 555.573059,758.521301 555.511963,758.558350 
z"/>
<path fill="#170B36" opacity="1.000000" stroke="none" 
	d="
M1123.123047,747.697937 
	C1134.603149,755.250122 1139.427734,768.038086 1136.496216,782.472229 
	C1133.920654,795.153625 1126.138306,803.099670 1113.972900,805.469788 
	C1100.804688,808.035156 1087.678345,800.790466 1084.497314,787.755249 
	C1082.774536,780.695862 1082.354980,772.719116 1083.732910,765.619080 
	C1087.320557,747.132935 1104.986084,739.366699 1123.123047,747.697937 
z"/>
<path fill="#0E0906" opacity="1.000000" stroke="none" 
	d="
M549.928955,548.873047 
	C562.268066,540.192871 575.026428,539.240479 587.738708,546.430481 
	C600.513367,553.655823 606.284790,565.298584 604.866150,579.864075 
	C603.565613,593.217102 596.206665,602.687988 583.841553,607.883972 
	C568.457703,614.348389 550.315369,608.238220 541.593384,593.965454 
	C532.582947,579.220581 535.779968,561.382874 549.928955,548.873047 
M588.030396,551.406372 
	C578.116272,544.377869 567.491211,543.909485 556.942017,549.190430 
	C545.875000,554.730469 541.045105,564.096375 540.824097,576.680359 
	C540.494873,595.432983 558.837219,610.568054 578.860657,605.448608 
	C590.919312,602.365540 598.555298,594.074097 600.623718,581.990723 
	C602.687073,569.936768 599.156799,559.274353 588.030396,551.406372 
z"/>
<path fill="#0E0906" opacity="1.000000" stroke="none" 
	d="
M561.931152,733.267944 
	C551.942322,730.186035 545.876831,722.396545 546.200317,713.484497 
	C546.504272,705.109375 552.683167,697.220276 560.613159,695.082458 
	C568.690613,692.904846 576.910767,695.738464 581.842224,702.400391 
	C586.757263,709.040161 587.161743,717.365234 582.910950,724.398010 
	C578.718750,731.333862 571.027466,734.682434 561.931152,733.267944 
M563.206543,698.442017 
	C551.463928,702.345581 547.067139,712.488159 552.779907,722.494324 
	C556.481018,728.977051 564.909241,731.519470 572.246765,728.366638 
	C579.795288,725.123230 583.513794,717.551270 581.181519,710.173157 
	C578.623718,702.081421 573.143311,698.265442 563.206543,698.442017 
z"/>
<path fill="#150934" opacity="1.000000" stroke="none" 
	d="
M588.334106,551.605408 
	C599.156799,559.274353 602.687073,569.936768 600.623718,581.990723 
	C598.555298,594.074097 590.919312,602.365540 578.860657,605.448608 
	C558.837219,610.568054 540.494873,595.432983 540.824097,576.680359 
	C541.045105,564.096375 545.875000,554.730469 556.942017,549.190430 
	C567.491211,543.909485 578.116272,544.377869 588.334106,551.605408 
z"/>
<path fill="#150934" opacity="1.000000" stroke="none" 
	d="
M563.587158,698.314636 
	C573.143311,698.265442 578.623718,702.081421 581.181519,710.173157 
	C583.513794,717.551270 579.795288,725.123230 572.246765,728.366638 
	C564.909241,731.519470 556.481018,728.977051 552.779907,722.494324 
	C547.067139,712.488159 551.463928,702.345581 563.587158,698.314636 
z"/>
</svg>