<svg width="636" height="140" viewBox="0 0 636 140" fill="none" xmlns="http://www.w3.org/2000/svg">
<path id="V" d="M23.5873 138L0 64L17 59.5L42.1475 126.514H28.2273L83.5 4.5L106 0L45.5846 138H23.5873Z" fill="var(--c-v)"/>
<path id="A" d="M142.284 138V119.532L141.087 115.599V83.2802C141.087 77.0102 139.206 72.1652 135.444 68.7452C131.682 65.2112 125.982 63.4442 118.344 63.4442C113.214 63.4442 108.141 64.2422 103.125 65.8382C98.2234 67.4342 94.0623 69.6572 90.6423 72.5072L82.2633 56.9462C87.1653 53.1842 92.9793 50.3912 99.7053 48.5672C106.545 46.6292 113.613 45.6602 120.909 45.6602C134.133 45.6602 144.336 48.8522 151.518 55.2362C158.814 61.5062 162.462 71.2532 162.462 84.4772V138H142.284ZM113.556 139.197C106.716 139.197 100.731 138.057 95.6013 135.777C90.4713 133.383 86.4813 130.134 83.6313 126.03C80.8953 121.812 79.5273 117.081 79.5273 111.837C79.5273 106.707 80.7243 102.09 83.1183 97.9862C85.6263 93.8822 89.6733 90.6332 95.2593 88.2392C100.845 85.8452 108.255 84.6482 117.489 84.6482H143.994V98.8412H119.028C111.732 98.8412 106.83 100.038 104.322 102.432C101.814 104.712 100.56 107.562 100.56 110.982C100.56 114.858 102.099 117.936 105.177 120.216C108.255 122.496 112.53 123.636 118.002 123.636C123.246 123.636 127.92 122.439 132.024 120.045C136.242 117.651 139.263 114.117 141.087 109.443L144.678 122.268C142.626 127.626 138.921 131.787 133.563 134.751C128.319 137.715 121.65 139.197 113.556 139.197Z" fill="var(--c-a)"/>
<path id="L" d="M175 138V22.5L196 18V138H175Z" fill="var(--c-l)"/>
<path id="I" d="M208.869 138L209 51.5L229.962 46V138H208.869ZM219.5 41.3161C215.562 41.3161 212.3 40.1762 209.712 37.8964C207.237 35.6166 206 32.8705 206 29.658C206 26.342 207.237 23.5958 209.712 21.4197C212.3 19.1399 215.562 18 219.5 18C223.438 18 226.644 19.0881 229.119 21.2642C231.706 23.3368 233 25.9793 233 29.1917C233 32.6114 231.763 35.5129 229.288 37.8964C226.813 40.1762 223.55 41.3161 219.5 41.3161Z" fill="var(--c-i)"/>
<path id="D" d="M244.634 138C249 138 249 18.2998 244.634 18.2998C240.269 18.2998 296.96 18.2998 296.96 18.2998C309.956 18.2998 321.356 20.8078 331.16 25.8238C340.964 30.8398 348.602 37.7938 354.074 46.6858C359.546 55.5778 362.282 66.0658 362.282 78.1498C362.282 90.1198 359.546 100.608 354.074 109.614C348.602 118.506 340.964 125.46 331.16 130.476C321.356 135.492 309.956 138 296.96 138C296.96 138 240.269 138 244.634 138ZM266.864 119.19H295.934C304.94 119.19 312.692 117.48 319.19 114.06C325.802 110.64 330.875 105.852 334.409 99.6958C338.057 93.5398 339.881 86.3578 339.881 78.1498C339.881 69.8278 338.057 62.6458 334.409 56.6038C330.875 50.4478 325.802 45.6598 319.19 42.2398C312.692 38.8198 304.94 37.1098 295.934 37.1098H266.864V119.19Z" fill="var(--c-d)"/>
<path id="O" d="M409.509 139.197C400.161 139.197 391.839 137.202 384.543 133.212C377.247 129.108 371.49 123.522 367.272 116.454C363.054 109.386 360.945 101.349 360.945 92.3432C360.945 83.2232 363.054 75.1862 367.272 68.2322C371.49 61.1642 377.247 55.6352 384.543 51.6452C391.839 47.6552 400.161 45.6602 409.509 45.6602C418.971 45.6602 427.35 47.6552 434.646 51.6452C442.056 55.6352 447.813 61.1072 451.917 68.0612C456.135 75.0152 458.244 83.1092 458.244 92.3432C458.244 101.349 456.135 109.386 451.917 116.454C447.813 123.522 442.056 129.108 434.646 133.212C427.35 137.202 418.971 139.197 409.509 139.197ZM409.509 120.9C414.753 120.9 419.427 119.76 423.531 117.48C427.635 115.2 430.827 111.894 433.107 107.562C435.501 103.23 436.698 98.1572 436.698 92.3432C436.698 86.4152 435.501 81.3422 433.107 77.1242C430.827 72.7922 427.635 69.4862 423.531 67.2062C419.427 64.9262 414.81 63.7862 409.68 63.7862C404.436 63.7862 399.762 64.9262 395.658 67.2062C391.668 69.4862 388.476 72.7922 386.082 77.1242C383.688 81.3422 382.491 86.4152 382.491 92.3432C382.491 98.1572 383.688 103.23 386.082 107.562C388.476 111.894 391.668 115.2 395.658 117.48C399.762 119.76 404.379 120.9 409.509 120.9Z" fill="var(--c-o)"/>
<path id="C" d="M505.189 139.197C495.613 139.197 487.063 137.202 479.539 133.212C472.129 129.108 466.315 123.522 462.097 116.454C457.879 109.386 455.77 101.349 455.77 92.3432C455.77 83.2232 457.879 75.1862 462.097 68.2322C466.315 61.1642 472.129 55.6352 479.539 51.6452C487.063 47.6552 495.613 45.6602 505.189 45.6602C514.081 45.6602 521.89 47.4842 528.616 51.1322C535.456 54.6662 540.643 59.9102 544.177 66.8642L527.761 76.4402C525.025 72.1082 521.662 68.9162 517.672 66.8642C513.796 64.8122 509.578 63.7862 505.018 63.7862C499.774 63.7862 495.043 64.9262 490.825 67.2062C486.607 69.4862 483.301 72.7922 480.907 77.1242C478.513 81.3422 477.316 86.4152 477.316 92.3432C477.316 98.2712 478.513 103.401 480.907 107.733C483.301 111.951 486.607 115.2 490.825 117.48C495.043 119.76 499.774 120.9 505.018 120.9C509.578 120.9 513.796 119.874 517.672 117.822C521.662 115.77 525.025 112.578 527.761 108.246L544.177 117.822C540.643 124.662 535.456 129.963 528.616 133.725C521.89 137.373 514.081 139.197 505.189 139.197Z" fill="var(--c-c)"/>
<path id="U" d="M585.908 139.197C578.156 139.197 571.316 137.772 565.388 134.922C559.46 131.958 554.843 127.512 551.537 121.584C548.231 115.542 546.578 107.961 546.578 98.8406V51L567.953 46.6855V95.9336C567.953 104.142 569.777 110.298 573.425 114.402C577.187 118.392 582.488 120.387 589.328 120.387C594.344 120.387 598.676 119.361 602.324 117.309C606.086 115.257 608.993 112.179 611.045 108.075C613.211 103.971 614.294 98.8976 614.294 92.8556V51L635.669 46.6855V138H615.32V113.376L618.911 120.9C615.833 126.828 611.33 131.388 605.402 134.58C599.474 137.658 592.976 139.197 585.908 139.197Z" fill="var(--c-u)"/>
</svg>
